<svg xmlns="http://www.w3.org/2000/svg" xmlns:xlink="http://www.w3.org/1999/xlink" version="1.1" width="512" height="512" ><g><rect  height="512" width="512" x="0" y="0"  id="6491462d1339933495303168" fill="white"/><g id="6491462d5929087373462055" transform="matrix(0.943144,0,0,0.943144,195.492423,153.6)" ><g><path  d="M 128 64.138901L 128 64.202797C 127.998001 63.905899 127.987 63.609001 127.966003 63.3125C 127.966003 62.848099 127.936996 62.3545 127.907997 61.861C 127.878998 61.3675 127.849998 60.874001 127.849998 60.4095L 127.849998 59.591599C 127.948997 61.048199 128 62.5182 128 64L 128 64.138901L 128 64.138901z M 127.966003 65.286598C 127.983002 65.047699 127.992996 64.808502 127.997002 64.569199C 127.989998 65.4104 127.966003 66.247704 127.927002 67.080803C 127.883003 65.981499 127.808998 65.042503 127.734001 66.680099L 127.734001 67.376801C 127.677002 67.6838 127.638 67.994102 127.617996 68.305801C 127.617996 68.505798 127.597 68.748802 127.571999 69.025597C 127.540001 69.391701 127.501999 69.817001 127.501999 70.2799L 127.501999 71.092697C 127.501999 71.324997 127.501999 71.673401 127.386002 71.905602L 127.153999 73.531303L 127.153999 74.433296C 125.521004 84.390602 121.589996 93.5746 115.924004 101.422997L 114.496002 103.259003L 113.682999 104.304001L 112.753998 105.348999C 110.649002 107.733002 108.358002 109.945999 105.903 111.968002C 104.117996 113.419998 102.258003 114.777 100.329002 116.031998L 98.703697 117.077003L 97.078003 118.005997L 96.381203 118.471001L 95.684502 118.819L 94.174896 119.632004L 92.665298 120.329002L 91.1558 121.025002L 89.646202 121.606003L 88.136597 122.186996L 86.510902 122.766998L 84.885101 123.232002L 82.562698 123.928001L 80.240303 124.509003L 79.079002 124.509003L 77.917801 124.740997L 76.756599 124.973L 70.602097 124.973L 71.763298 124.740997L 72.692299 124.740997L 73.6213 124.509003L 75.363098 124.043999L 76.176003 123.811996L 76.872704 123.580002C 77.847801 123.537003 78.818199 123.420998 79.775803 123.232002C 79.775803 123.115997 79.891899 122.999001 80.1241 122.999001L 80.704803 122.999001C 80.926598 123.072998 81.101303 122.959 81.289001 122.835999C 81.396004 122.765999 81.507202 122.693001 81.633698 122.651001C 82.073196 122.703003 82.518204 122.623001 82.911102 122.418999C 82.979401 122.385002 83.047798 122.330002 83.119102 122.274002C 83.2901 122.138 83.478104 121.987999 83.7239 122.07L 83.7239 121.837997L 84.304497 121.837997C 84.652901 121.722 85.001297 121.606003 85.117401 121.258003L 85.465797 121.258003L 85.814102 120.908997L 86.975403 120.560997L 87.904297 120.560997C 88.091797 120.654999 88.203697 120.521004 88.300903 120.404999C 88.324097 120.377998 88.346497 120.350998 88.368797 120.329002C 88.402397 120.294998 88.494102 120.271004 88.613197 120.239998C 88.906197 120.164001 89.364899 120.044998 89.529999 119.632004L 89.646202 119.632004L 91.271896 118.586998L 91.504097 118.586998L 93.013702 118.237999L 93.245903 117.889999L 93.013702 117.657997L 93.245903 117.657997C 93.3181 117.657997 93.384903 117.652 93.447197 117.641998L 93.478203 117.657997L 94.0588 117.426003C 94.069 117.374001 94.0811 117.327003 94.094803 117.281998C 94.150299 117.227997 94.204697 117.170998 94.260696 117.112C 94.307999 117.063004 94.3563 117.012001 94.407204 116.960999C 94.774696 116.880997 95.102997 116.676003 95.336197 116.379997C 95.644897 116.442001 95.887901 116.274002 96.135201 116.102997C 96.352898 115.953003 96.573799 115.800003 96.845703 115.800003L 97.078003 115.800003L 98.007004 115.219002L 98.935898 114.871002L 99.284302 114.290001C 99.981003 114.212997 100.419998 113.774002 100.841003 113.352997C 101.052002 113.141998 101.258003 112.934998 101.490997 112.780998C 101.547997 112.717003 101.579002 112.634003 101.579002 112.547997C 101.579002 112.462997 101.547997 112.379997 101.490997 112.316002C 100.910004 112.084 100.561996 112.431999 100.329002 112.897003C 100.199997 113.155998 99.960999 113.089996 99.714897 113.021004C 99.520699 112.966003 99.321899 112.910004 99.168198 113.013C 98.819801 113.245003 98.355301 113.476997 98.007004 113.128998L 97.8908 113.128998L 98.587601 112.547997C 100.567001 111.188004 102.467003 109.713997 104.278 108.136002C 104.906998 107.668999 105.528 107.191002 106.140999 106.703003L 105.903 106.974998C 106.119003 106.777 106.332001 106.579002 106.542999 106.379997C 108.426003 104.856003 110.228996 103.233002 111.942001 101.516998L 112.987 100.238998L 113.800003 99.078201L 114.031998 99.310402C 114.091003 99.370201 114.166 99.412498 114.248001 99.432999C 114.330002 99.4534 114.416 99.451202 114.496002 99.426598L 114.728996 99.774902C 114.644997 99.736198 114.554001 99.714401 114.461998 99.710999C 114.370003 99.707497 114.278 99.722397 114.191002 99.754799C 114.105003 99.787201 114.026001 99.836502 113.958 99.899803C 113.890999 99.962997 113.836998 100.039001 113.800003 100.123001C 113.554001 100.585999 113.472 101.117996 113.567001 101.633003L 112.987 101.633003C 112.961998 101.654999 112.942001 101.681 112.929001 101.711998C 112.915001 101.741997 112.907997 101.774002 112.907997 101.806999C 112.907997 101.82 112.908997 101.834 112.912003 101.847C 112.914001 101.860001 112.917 101.873001 112.921997 101.885002L 112.924004 101.891998L 112.929001 101.903C 112.942001 101.932999 112.961998 101.959 112.987 101.981003L 112.638 103.607002L 113.567001 102.678001L 114.496002 101.749001C 115.253998 101.358002 115.834999 100.694 116.122002 99.891098C 116.211998 99.8265 116.281998 99.737602 116.322998 99.634697C 116.363998 99.531799 116.375 99.419296 116.353996 99.310402C 116.633003 99.101402 116.786003 98.766998 116.940002 98.432602C 117.042 98.209602 117.143997 97.986702 117.282997 97.800903L 117.282997 97.452499L 117.167 97.452499L 117.514999 96.871902L 118.328003 95.594498L 118.328003 94.5494L 118.560997 94.5494L 118.908997 94.201103L 119.257004 93.620499C 119.748001 93.4244 119.823997 93.062698 119.905998 92.675301C 119.920998 92.603897 119.935997 92.531601 119.954002 92.459198C 120.154999 92.316704 120.315002 92.123398 120.417 91.899002C 120.518997 91.674599 120.559998 91.427101 120.535004 91.1819L 120.766998 90.833504L 121.463997 89.323898C 121.873001 89.0793 122.197998 88.714401 122.392998 88.278801L 122.392998 88.0466C 122.752998 87.492302 122.954002 86.849503 122.973 86.188599C 123.109001 86.052803 123.156998 85.864098 123.205002 85.670502C 123.281998 85.367599 123.361 85.053001 123.786003 84.911301C 124.483002 84.679001 124.250999 83.750099 124.017998 83.053299L 124.017998 81.427597C 124.489998 80.621201 124.693001 79.686096 124.598999 78.756798L 124.483002 78.756798C 123.927002 78.756798 123.806 79.0821 123.672997 79.436302C 123.612 79.600502 123.547997 79.770897 123.438004 79.917999C 123.249001 80.195198 123.128998 80.513901 123.088997 80.847C 122.971001 80.823402 122.882004 80.823799 122.815002 80.843399C 122.839996 80.651199 122.857002 80.477798 122.857002 80.3825L 123.088997 79.685799L 123.321999 79.917999L 123.321999 78.176201C 123.786003 76.202103 124.134003 74.227997 124.483002 72.253998L 124.714996 70.628304L 125.528 70.396004L 125.760002 70.628304L 125.991997 70.628304L 125.991997 69.118698L 125.528 69.118698C 125.393997 69.237801 125.309998 69.404198 125.295998 69.583199L 124.714996 69.583199L 124.714996 68.886398C 124.831001 67.841301 124.831001 66.796204 124.831001 65.983398C 124.831001 65.170502 124.714996 61.454601 124.483002 64.125397C 124.457001 64.359596 124.417999 64.592201 124.366997 64.822098C 124.308998 65.129204 124.269997 65.4394 124.250999 65.751099C 124.250999 65.951103 124.228996 66.194099 124.205002 66.470901C 124.171997 66.836998 124.134003 67.262299 124.134003 67.725197L 124.134003 68.538101C 124.134003 68.770302 124.134003 69.118698 124.017998 69.350899L 123.786003 70.976601L 123.786003 72.602303L 123.438004 74.227997L 122.740997 77.363297C 122.509003 78.408401 122.043999 77.4795 121.811996 77.014999C 121.738998 76.869301 121.643997 76.746498 121.556999 76.635696L 121.556999 76.635597L 121.556999 76.635498C 121.367996 76.393303 121.224998 76.2089 121.463997 75.969902C 121.811996 75.621498 121.928001 74.460297 121.928001 73.763603C 121.941002 73.572899 122.000999 73.388397 122.101997 73.226303C 122.203003 73.064201 122.343002 72.929703 122.509003 72.834602L 122.857002 72.834602C 122.740997 72.486198 122.509003 72.370102 122.160004 72.370102C 122.093002 72.1688 121.948997 72.044998 121.816002 71.931602C 121.719002 71.848701 121.628998 71.7714 121.580002 71.673401C 121.507004 71.528801 121.614998 71.114304 121.735001 70.653801L 121.735001 70.653702L 121.735001 70.653603L 121.735001 70.653198C 121.806999 70.374199 121.884003 70.0783 121.928001 69.815399L 122.276001 68.886398L 122.043999 68.305801C 121.954002 68.124397 122.022003 67.907402 122.091003 67.689697C 122.198997 67.350098 122.306999 67.008499 121.811996 66.796204L 121.811996 69.815399L 121.695999 69.815399L 121.695999 68.654198C 121.695999 66.099503 121.580002 64.125397 121.348 66.796204L 121.348 67.492996C 121.291 67.800102 121.251999 68.110298 121.231003 68.421898C 121.231003 68.621902 121.209999 68.864899 121.184998 69.141701C 121.153 69.507797 121.114998 69.933098 121.114998 70.396004L 121.114998 71.2089C 121.114998 71.441101 121.114998 71.789497 120.999001 72.021698L 120.766998 73.531303L 120.651001 73.531303C 120.478996 73.714996 120.365997 73.945198 120.324997 74.193001C 120.282997 74.440903 120.316002 74.695396 120.418999 74.924797L 120.418999 75.389297L 120.07 77.014999L 119.837997 78.060097L 118.677002 78.989098C 118.461998 79.108704 118.278 79.275299 118.137001 79.476402C 117.996002 79.677498 117.903 79.907898 117.863998 80.150299L 117.863998 80.3825L 117.514999 80.963097C 117.304001 81.0392 117.110001 81.158401 116.946999 81.313103C 116.782997 81.467903 116.653999 81.6549 116.567001 81.862297C 116.478996 82.069702 116.435997 82.292999 116.439003 82.517998C 116.443001 82.740501 116.491997 82.959999 116.583 83.162697C 116.565002 83.148102 116.546997 83.1297 116.528 83.111397C 116.470001 83.053299 116.412003 82.9953 116.353996 83.053299C 116.296997 83.087997 116.247002 83.134598 116.209999 83.190201C 116.171997 83.245697 116.147003 83.308701 116.136002 83.374901C 116.125 83.4412 116.127998 83.509003 116.146004 83.5737C 116.163002 83.638496 116.195 83.6987 116.237999 83.750099L 116.237999 83.866203C 116.237999 83.866203 116.005997 86.653099 115.308998 87.930496C 114.82 88.826599 114.903 88.979698 114.996002 89.151703C 115.036003 89.224899 115.077003 89.301399 115.077003 89.440102C 115.077003 89.904503 115.077003 90.833504 114.496002 91.297997C 114.294998 91.4869 114.154999 91.731201 114.093002 91.999901C 114.030998 92.2687 114.050003 92.549797 114.148003 92.807602C 113.855003 92.7099 113.725998 92.858902 113.623001 92.977798C 113.603996 93.000198 113.585999 93.0215 113.567001 93.039803L 112.987 93.388199C 112.945999 93.411003 112.914001 93.445198 112.892998 93.486603C 112.872002 93.528 112.864998 93.5746 112.871002 93.620499C 112.220001 93.512001 111.973999 94.011299 111.755997 94.4561L 111.733002 94.502701L 111.709 94.5494C 111.521004 94.925201 111.486 94.920998 111.356003 94.905701C 111.324997 94.902 111.289001 94.897797 111.245003 94.897797L 110.897003 96.058998L 110.316002 97.336403C 110.113998 97.6185 109.843002 97.858704 109.569 98.100601C 109.055 98.555603 108.533997 99.0168 108.458 99.774902L 108.110001 100.007004L 107.876999 100.007004L 107.876999 100.238998L 106.136002 102.678001L 106.136002 102.910004C 105.898003 102.934998 105.676003 103.041 105.507004 103.210999C 105.337997 103.379997 105.232002 103.600998 105.207001 103.838997C 104.792 103.838997 104.672997 104.135002 104.555 104.431999C 104.507004 104.550003 104.459999 104.668999 104.393997 104.767998C 104.292999 104.918999 104.106003 105.07 103.906998 105.230003C 103.644997 105.440002 103.363998 105.666 103.232002 105.929001C 103.139 106.115997 102.932999 106.227997 102.712997 106.347C 102.385002 106.525002 102.025002 106.721001 101.955002 107.207001C 101.342003 107.942001 100.568001 108.484001 99.802002 109.018997C 99.116997 109.497002 98.439201 109.971001 97.8908 110.573997L 97.774696 110.573997C 97.676804 110.596001 97.584602 110.638 97.504501 110.697998C 97.424301 110.758003 97.358002 110.834999 97.310204 110.922997L 97.310204 111.154999L 94.291 112.897003L 93.594299 113.361L 91.504097 114.290001C 91.342003 114.251999 91.173103 114.252998 91.011497 114.293999C 90.849899 114.334 90.700302 114.413002 90.575104 114.522003L 88.020401 114.522003L 88.020401 114.754997C 87.5 114.944 86.940903 114.920998 86.382599 114.898003C 85.570702 114.864998 84.760399 114.832001 84.072304 115.450996C 83.583298 115.891998 83.382599 116.023003 83.3228 116.061996C 83.307503 116.071999 83.301399 116.075996 83.302002 116.077003C 83.302399 116.078003 83.305801 116.078003 83.311501 116.078003C 83.343002 116.078003 83.445198 116.079002 83.491699 116.264L 82.214302 117.193001L 81.633698 117.193001C 80.813499 117.277 79.984802 117.197998 79.195198 116.960999L 78.614502 116.264L 78.962898 115.916C 78.962898 115.450996 78.962898 114.987 79.543503 114.639C 79.909401 114.418999 79.814201 114.292 79.722702 114.169998C 79.683701 114.116997 79.645302 114.066002 79.643898 114.009003L 79.891899 114.174004C 79.963997 114.120003 80.022499 114.050003 80.062798 113.969002C 80.103203 113.889 80.1241 113.800003 80.1241 113.709999C 80.1241 113.619003 80.103203 113.530998 80.062798 113.449997C 80.022499 113.369003 79.963997 113.299004 79.891899 113.245003C 79.690903 112.641998 79.2192 112.619003 78.744499 112.596001C 78.396698 112.579002 78.047302 112.561996 77.801697 112.316002C 77.573196 112.087997 77.452599 111.768997 77.340897 111.473999C 77.168602 111.018997 77.017303 110.620003 76.524399 110.690002C 76.049004 110.758003 76.089897 111.183998 76.136101 111.664001C 76.168999 112.005997 76.204498 112.375 76.059898 112.665001C 75.964699 112.830002 75.8302 112.970001 75.668098 113.070999C 75.506104 113.172997 75.321503 113.232002 75.130898 113.245003C 74.235901 112.946999 73.936996 113.5 73.650902 114.029999C 73.602898 114.119003 73.555199 114.207001 73.505203 114.290001C 72.864502 114.635002 72.141197 114.794998 71.415001 114.754997C 71.390297 114.777 71.370499 114.803001 71.356903 114.833C 71.343399 114.862999 71.336304 114.896004 71.336304 114.929001C 71.336304 114.961998 71.343399 114.994003 71.356903 115.024002C 71.370499 115.054001 71.390297 115.081001 71.415001 115.102997L 71.066597 115.450996C 70.718201 115.660004 70.746101 115.995003 70.774002 116.329002C 70.792603 116.552002 70.811096 116.775002 70.718201 116.960999L 70.369904 116.960999C 70.246002 117.147003 70.122101 117.068001 69.998299 116.989998C 69.8899 116.920998 69.781502 116.852997 69.673103 116.960999L 69.440903 116.960999C 69.175499 116.165001 68.910103 116.446999 68.6446 116.728996C 68.561699 116.818001 68.478699 116.905998 68.395798 116.960999C 68.279198 117.039001 68.045601 117.102997 67.764503 117.181L 67.764397 117.181L 67.764297 117.181L 67.764198 117.181C 67.205498 117.335999 66.459602 117.542999 66.073303 118.005997C 65.683998 118.473 65.451302 117.896004 65.235199 117.360001C 65.129097 117.097 65.026901 116.844002 64.912102 116.728996L 64.912102 116.264C 64.461601 115.942001 63.939602 115.976997 63.405701 116.013C 62.976398 116.042 62.5392 116.070999 62.125198 115.916C 61.505901 115.683998 61.402699 115.348 61.2994 115.013C 61.247799 114.845001 61.196201 114.677002 61.080101 114.522003L 60.731701 114.057999C 60.0187 113.039001 59.127102 113.361 58.213402 113.690002C 58.085499 113.737 57.9571 113.782997 57.828701 113.825996C 57.7854 113.82 57.741199 113.825996 57.701302 113.844002C 57.661301 113.862 57.6273 113.889999 57.603001 113.927002C 57.578701 113.962997 57.565201 114.005997 57.564098 114.050003C 57.562901 114.093002 57.5741 114.136002 57.596401 114.174004L 56.7836 114.754997C 56.202999 115.219002 55.854599 114.987 55.506199 114.405998C 55.157902 113.825996 54.461102 114.639 54.345001 115.102997C 54.228901 115.568001 53.5322 116.264 52.719299 116.264L 50.629101 116.497002L 50.513 116.497002C 50.488701 116.447998 50.469601 116.400002 50.451199 116.352997C 50.381699 116.177002 50.3241 116.031998 50.0485 116.031998C 49.7728 116.031998 49.715302 116.25 49.645802 116.514L 49.645699 116.514L 49.645599 116.514C 49.6273 116.584 49.6082 116.655998 49.584 116.728996L 47.2616 116.728996L 47.2616 116.148003C 47.161301 116.081001 47.080299 115.908997 46.996399 115.730003C 46.7887 115.288002 46.563202 114.806999 45.9842 115.800003L 45.751999 116.031998L 44.823002 116.379997L 44.590698 116.379997C 44.2855 115.311996 43.679298 115.497002 43.068802 115.683998C 42.750401 115.781998 42.430801 115.878998 42.152199 115.800003L 40.758701 116.031998C 40.4259 115.559998 39.9291 115.228996 39.3652 115.102997L 39.016899 115.102997C 38.806702 115.032997 38.585999 114.995003 38.364201 114.956001C 37.850899 114.866997 37.3321 114.777 36.926701 114.290001L 36.3461 113.709999L 36.3461 113.361L 35.184799 112.780998L 34.952599 112.780998C 34.9538 112.43 34.823101 112.092003 34.5863 111.834C 34.349602 111.575996 34.0243 111.416 33.675301 111.387001L 33.094601 111.039001L 33.094601 110.690002C 32.9655 110.416 32.770901 110.177002 32.528 109.994003C 32.285 109.811996 32.001202 109.692001 31.7012 109.644997L 31.3528 109.413002L 30.7722 108.948997L 30.656099 108.948997C 30.501499 108.650002 30.258101 108.405998 29.959299 108.251999L 29.4949 108.251999C 29.315701 107.934998 29.064699 107.666 28.762199 107.463997C 28.4597 107.262001 28.114 107.134003 27.753 107.091003L 26.591801 105.813004L 25.6628 104.884003C 25.364201 104.785004 25.129601 104.556999 24.895 104.330002C 24.582199 104.026001 24.2694 103.723 23.804899 103.723L 23.456499 103.141998L 22.2953 102.213997C 22.179199 101.749001 21.830799 101.516998 21.482401 101.285004L 21.366301 101.285004L 21.366301 101.052002L 19.856701 99.426598L 19.856701 98.613701L 19.3922 97.917L 19.3922 96.987999C 19.3097 95.959602 18.903099 94.983803 18.231001 94.201103L 17.882601 93.388199C 17.7302 93.286598 17.7334 93.118301 17.736601 92.951302C 17.7407 92.736801 17.744699 92.524498 17.4181 92.459198L 17.4181 91.6464L 17.1859 91.6464C 17.0968 91.210899 16.916201 90.799301 16.655899 90.438904C 16.395599 90.078598 16.061701 89.777603 15.6763 89.556198L 14.7473 88.394997C 14.6573 88.260002 14.6197 88.090103 14.5802 87.912399C 14.5179 87.6315 14.4512 87.331001 14.1667 87.117599C 14.1809 86.921204 14.1323 86.725403 14.0279 86.558403C 13.9236 86.391502 13.7689 86.262001 13.5861 86.188599C 13.4555 86.057999 13.3738 85.878403 13.2922 85.6987C 13.1561 85.399399 13.02 85.099998 12.6571 85.027397C 12.2805 84.952103 12.1482 84.632401 12.0066 84.290298C 11.9299 84.105003 11.8505 83.9132 11.7282 83.750099L 10.7992 82.937202C 10.7111 82.480103 10.4643 82.068802 10.1024 81.776001C 9.95399 81.377502 9.66486 81.047096 9.28959 80.847L 8.59286 77.827797C 8.60616 77.340202 8.48568 76.858299 8.24449 76.434402L 8.36062 76.434402L 8.59286 76.085999C 8.80361 75.319397 8.76291 74.505302 8.47674 73.763603L 8.24449 73.531303L 8.01225 72.137802C 8.06154 71.976501 8.06596 71.804802 8.02504 71.641098C 7.98413 71.477501 7.89942 71.328003 7.78 71.2089L 7.78 70.2799L 7.54776 70.0476L 7.54776 67.492996L 7.66388 67.492996C 7.73512 67.467903 7.79629 67.420403 7.83818 67.357597C 7.88006 67.294701 7.9004 67.220001 7.89613 67.1446C 8.06875 66.340897 8.06875 65.509697 7.89613 64.706001C 7.89613 64.580399 7.85538 64.458199 7.78 64.357697C 7.80903 64.183502 7.85984 64.0093 7.91064 63.835098C 8.06305 63.312599 8.21546 62.790001 7.78 62.267502L 7.78 61.803001C 7.83732 61.495899 7.8761 61.185699 7.89613 60.874001C 7.89613 60.748402 7.85538 60.626099 7.78 60.5256L 8.01225 60.177299C 8.05584 59.523399 8.05034 58.869499 8.04489 58.221802C 8.03582 57.144001 8.0269 56.083302 8.24449 55.067902L 8.01225 54.719501C 8.05427 54.672401 8.08623 54.617199 8.1062 54.557301C 8.12616 54.497398 8.13371 54.434101 8.12837 54.371101L 8.12837 54.138901L 8.47674 51.700298C 8.60672 51.570301 8.7458 51.4585 8.88126 51.349701C 9.22982 51.0695 9.55433 50.808601 9.63796 50.3069L 9.75408 50.3069C 9.77485 50.265301 9.79933 50.223801 9.8242 50.181599L 9.82423 50.181499C 9.93844 49.987801 10.0609 49.779999 9.8702 49.493999L 10.2186 49.029499L 10.2186 48.797298L 10.3347 48.797298C 10.4052 48.652199 10.4448 48.493999 10.4508 48.332802L 10.4508 48.100498L 10.6831 47.519901L 11.612 46.591L 11.8443 46.242599L 11.612 45.894199C 12.6571 45.661999 12.7733 44.965199 12.7733 44.036301C 13.2585 43.757301 13.6566 43.3489 13.9232 42.8568C 14.1897 42.3647 14.3143 41.808102 14.2828 41.249298C 14.2488 40.6973 14.3279 40.1441 14.5151 39.6236L 14.5151 39.391399C 14.9796 39.1591 15.2118 38.694599 15.4441 38.230099C 15.6616 38.086201 15.8465 37.898102 15.9865 37.678001C 16.1266 37.458 16.2187 37.2108 16.256901 36.952801L 17.1859 35.443199C 17.384399 35.317299 17.5508 35.146702 17.671801 34.945099C 17.792801 34.7435 17.865 34.516399 17.882601 34.282001C 18.1294 34.114101 18.3321 33.889301 18.4736 33.626598C 18.615101 33.3638 18.6912 33.070801 18.695499 32.7724L 19.0439 32.424L 20.321199 31.4951L 20.321199 30.682199C 20.7857 30.566099 20.9018 30.217699 21.0179 29.753201C 21.5592 29.291599 21.9613 28.688499 22.179199 28.0114L 22.4114 28.0114L 22.4114 27.7791C 22.775499 27.686399 23.1078 27.497299 23.373501 27.2316C 23.639099 26.966 23.8283 26.6336 23.921 26.2696C 24.207199 26.280399 24.4888 26.194599 24.720501 26.026199C 24.952101 25.8577 25.120399 25.616199 25.198299 25.340599L 25.082199 25.340599L 26.243401 24.4116C 26.2638 24.376301 26.274599 24.336201 26.274599 24.2955C 26.274599 24.2547 26.2638 24.214701 26.243401 24.179399L 26.243401 23.9471C 26.442499 24.0135 26.6416 23.9282 26.840599 23.8428C 26.989901 23.778799 27.1392 23.714899 27.2885 23.714899C 27.398199 23.681601 27.4979 23.621799 27.579 23.5408C 27.66 23.459801 27.719801 23.360001 27.753 23.250401L 27.5208 22.902L 27.404699 22.902C 28.217501 22.902 28.565901 22.4375 28.681999 21.740801C 28.8207 21.7794 28.9687 21.7652 29.0975 21.7008C 29.2262 21.6364 29.326401 21.526501 29.3787 21.392401C 29.959299 21.508499 30.191601 21.044001 30.307699 20.579599C 30.371599 20.5476 30.4354 20.506901 30.501699 20.464701C 30.676399 20.3533 30.868 20.231199 31.1206 20.231199L 31.1206 19.882799L 31.2367 19.882799C 31.350599 19.8449 31.4646 19.831699 31.5744 19.819C 31.800501 19.792999 32.009399 19.7689 32.165699 19.5345L 32.630199 19.5345L 33.3269 19.07L 34.139702 18.8377L 35.881599 17.212L 35.9977 17.212C 36.694401 16.979799 37.391201 16.747499 37.507301 15.8185L 37.855701 15.8185C 38.3326 15.5861 38.7649 15.2717 39.132999 14.8896L 39.4814 14.8896L 40.874802 14.4251L 41.107101 14.0767L 40.991001 14.0767C 41.5327 14.0043 42.0499 13.8054 42.5005 13.4961L 43.777901 13.4961C 44.358501 13.6122 44.939098 13.6122 45.287498 13.1477C 45.303101 13.0711 45.303101 12.9921 45.287498 12.9155L 46.9132 12.9155C 47.029301 12.9155 47.145401 12.7994 47.029301 12.6832C 47.855999 12.7058 48.680599 12.588 49.467899 12.3349L 49.7001 12.3349C 49.825199 12.3824 49.962898 12.3852 50.089901 12.3429C 50.216801 12.3006 50.325298 12.2157 50.3969 12.1026L 52.138699 12.1026C 52.330299 12.1613 52.531601 12.1813 52.730999 12.1613C 52.930302 12.1414 53.123699 12.082 53.2999 11.9865L 53.880501 11.9865L 54.112801 11.7543C 54.463902 11.836 54.830299 11.8254 55.176201 11.7237C 55.522099 11.622 55.8358 11.4325 56.0868 11.1737L 56.0868 10.1286C 56.502701 10.6276 57.037601 10.5309 57.563801 10.4359C 57.772202 10.3982 57.979301 10.3608 58.176998 10.3608L 58.641499 10.3608C 58.736698 10.412 58.846802 10.4284 58.952702 10.4072C 59.058701 10.3861 59.153999 10.3286 59.222099 10.2447C 59.312801 10.1549 59.3811 10.0451 59.421398 9.92404C 59.4618 9.803 59.473099 9.67416 59.454399 9.54795L 60.2672 9.54795L 60.964001 9.3157C 62.216702 9.16645 63.458099 8.93368 64.679901 8.61897L 65.144402 8.85121C 66.2276 8.98248 67.324699 8.94329 68.395798 8.73509L 68.511902 8.73509C 68.676498 8.85671 68.865898 8.94057 69.066597 8.98071C 69.267303 9.02084 69.474403 9.01628 69.673103 8.96734L 70.9505 8.96734L 73.389099 10.2447C 73.833199 10.588 74.349297 10.8262 74.898598 10.9414C 75.259697 11.3928 75.7612 11.5634 76.239304 11.7262C 76.376198 11.7727 76.5112 11.8187 76.640503 11.8704L 77.337196 12.3349C 77.569504 12.4123 77.788803 12.5284 78.008102 12.6445C 78.4468 12.8768 78.885498 13.109 79.427399 13.0316L 79.659698 13.0316L 80.3564 13.6122C 80.3564 13.9606 80.704803 13.9606 80.936996 13.9606L 83.375603 14.8896C 83.560699 15.1673 83.819702 15.1498 84.093597 15.1313C 84.1633 15.1266 84.233902 15.1218 84.304497 15.1218L 84.652901 15.3541L 84.652901 15.5863C 85.455597 15.8233 86.314903 15.7824 87.091499 15.4702L 87.439796 15.4702L 88.601097 15.1218C 88.621803 15.013 88.610901 14.9005 88.569801 14.7976C 88.528603 14.6947 88.4589 14.6057 88.368797 14.5412L 88.020401 13.9606L 88.252701 13.6122L 88.252701 13.38C 88.499603 13.5624 88.783699 13.6882 89.084801 13.7484C 89.385803 13.8086 89.696404 13.8018 89.994499 13.7283C 90.034798 13.7056 90.067398 13.6713 90.088097 13.63C 90.108803 13.5886 90.1166 13.542 90.110603 13.4961L 91.388 12.9155L 92.433098 13.6122L 93.362099 14.1928C 93.550201 14.6727 93.629501 15.1882 93.594299 15.7024C 94.174896 16.283001 94.639397 15.9347 95.103897 15.4702L 95.220001 15.4702L 96.032898 16.0508L 95.916801 16.0508C 95.568398 16.0508 95.452301 16.283001 95.336197 16.631399C 95.280098 16.799601 95.332298 16.994801 95.388199 17.204C 95.448097 17.4282 95.512299 17.668501 95.452301 17.908701L 94.639397 17.908701C 94.370102 17.459801 93.961899 17.496799 93.522202 17.536699C 93.393204 17.548401 93.261497 17.5604 93.129799 17.5604C 93.129799 17.2764 92.9561 17.0357 92.794601 16.812C 92.692001 16.6698 92.594299 16.5345 92.549202 16.3992L 93.478203 15.4702C 93.545197 14.8671 93.186897 14.844 92.827202 14.8208C 92.563499 14.8038 92.299103 14.7868 92.200897 14.5412L 92.200897 14.7734C 91.991096 15.0072 91.840103 15.2876 91.760399 15.5914C 91.680801 15.8952 91.674797 16.213699 91.742897 16.5203C 91.810997 16.8269 91.951302 17.112801 92.152199 17.3543C 92.352997 17.5958 92.608498 17.7859 92.897598 17.908701C 93.4496 18.2582 94.114502 18.382799 94.755501 18.257099C 94.893402 18.349001 95.0131 18.495501 95.1362 18.6462C 95.324097 18.8762 95.519997 19.1159 95.800598 19.1861L 95.916801 19.1861L 95.916801 19.418301C 95.640602 19.9016 95.857002 20.220699 96.077904 20.5464C 96.2285 20.768499 96.381203 20.993799 96.381203 21.2763L 96.613503 21.2763C 96.763496 20.976299 96.864998 21.063801 96.980698 21.163401C 97.044098 21.218 97.111801 21.2763 97.194099 21.2763C 97.745598 21.825001 98.370903 22.294001 99.052101 22.6698C 99.321999 22.9508 99.635696 23.1861 99.981003 23.366501C 100.046997 23.454599 100.109001 23.5553 100.171997 23.658199C 100.443001 24.097601 100.737999 24.5777 101.490997 24.2955C 101.540001 24.2519 101.580002 24.198299 101.607002 24.138201C 101.634003 24.078199 101.648003 24.013 101.648003 23.9471C 101.648003 23.881201 101.634003 23.816099 101.607002 23.756001C 101.580002 23.6959 101.540001 23.6423 101.490997 23.5987L 100.561996 22.6698L 100.561996 22.089199C 100.454002 21.981501 100.367996 21.829399 100.280998 21.674101C 100.085999 21.327 99.881798 20.9638 99.400398 21.0441C 99.468498 20.817699 99.5075 20.5835 99.516502 20.3473L 100.212997 20.579599C 100.329002 21.044001 100.561996 21.044001 101.375 20.579599L 101.723 20.579599L 102.303001 21.1602L 103.581001 22.4375L 105.207001 24.0632L 105.787003 24.76L 106.367996 25.456699L 107.413002 26.617901L 107.064003 26.966299L 106.484001 26.0373C 106.136002 26.0373 105.787003 26.0373 105.555 26.3857C 105.359001 26.399799 105.163002 26.3512 104.996002 26.246901C 104.829002 26.1425 104.698997 25.987801 104.625999 25.805099C 104.567001 25.805099 104.509003 25.8018 104.450996 25.7985C 104.164001 25.7824 103.889999 25.767099 103.696999 26.1534C 103.563004 26.422199 104.206001 26.6521 104.929001 26.9107C 105.456001 27.0989 106.025002 27.302299 106.367996 27.5469C 106.332001 27.660299 106.332001 27.7819 106.367996 27.8953C 106.813004 28.2663 107.306 28.305401 107.815002 28.3459C 108.102997 28.3687 108.397003 28.392 108.690002 28.475901L 108.806 28.475901L 109.502998 29.4049L 110.084 30.217699L 110.084 30.450001C 110.045998 30.5252 110.032997 30.600401 110.019997 30.6716C 109.994003 30.8204 109.971001 30.952 109.735001 31.0306C 109.733002 31.554001 109.851997 32.0709 110.084 32.540199L 110.316002 33.701401L 111.245003 34.978699L 113.450996 38.578499C 113.818001 38.212101 113.678001 37.9179 113.545998 37.639L 113.545998 37.638901C 113.511002 37.564301 113.475998 37.490799 113.450996 37.417301C 113.384003 37.214199 113.553001 37.050598 113.727997 36.880501C 113.853996 36.758701 113.983002 36.633598 114.031998 36.4883C 114.079002 36.3479 114.181999 36.226299 114.289001 36.1008C 114.446999 35.915001 114.612 35.720501 114.612 35.443199L 114.728996 35.443199C 114.797997 35.419998 114.873001 35.401402 114.946999 35.382801C 115.244003 35.308498 115.541 35.2342 115.541 34.862598C 115.774002 35.182701 116.098 35.425499 116.470001 35.559299L 116.934998 35.559299C 116.809998 35.754902 116.752998 35.986599 116.774002 36.217899C 116.794998 36.4492 116.891998 36.666901 117.051003 36.8367L 117.514999 36.2561C 117.632004 36.7206 117.980003 36.952801 118.328003 37.185001C 118.168999 37.3815 118.086998 37.629101 118.096001 37.881802C 118.120003 38.0196 118.175003 38.150299 118.255997 38.264C 118.337997 38.377701 118.444 38.4715 118.567001 38.538502C 118.689003 38.605499 118.825996 38.643902 118.964996 38.650799C 119.105003 38.6577 119.245003 38.632999 119.373001 38.578499L 119.606003 38.578499C 119.420998 38.721298 119.295998 38.9286 119.257004 39.1591C 119.292999 39.8172 119.491997 40.455898 119.837997 41.017101C 119.684998 41.111698 119.569 41.2542 119.505997 41.422298C 119.443001 41.590302 119.436996 41.774502 119.489998 41.946098L 119.489998 42.178299C 119.398003 42.4809 119.238998 42.758801 119.025002 42.991199C 118.995003 43.044102 118.977997 43.104198 118.977997 43.165298C 118.977997 43.226501 118.995003 43.286598 119.025002 43.3395L 120.07 43.3395C 120.237 43.599899 120.481003 43.802601 120.766998 43.920101C 120.731003 44.033501 120.731003 44.155102 120.766998 44.268501C 120.959999 44.5266 120.795998 44.6054 120.630997 44.6842C 120.499001 44.747299 120.366997 44.810398 120.418999 44.965199C 120.519997 45.2687 121.060997 45.395901 121.505997 45.500401L 121.597 45.521801C 121.630997 45.5299 121.664001 45.5378 121.695999 45.545799C 121.585999 45.717899 121.543999 45.925201 121.580002 46.126499L 122.160004 47.519901L 122.392998 47.752201L 121.928001 47.752201C 121.681999 47.752201 121.445 47.849998 121.271004 48.0243C 121.097 48.198502 120.999001 48.434799 120.999001 48.681099L 120.766998 48.681099C 120.633003 48.800301 120.549004 48.966702 120.535004 49.145599C 120.435997 49.145599 120.329002 49.182598 120.220001 49.220001C 119.943001 49.315201 119.655998 49.4137 119.489998 48.913399L 120.07 48.332802L 120.07 47.984402C 120.07 47.9445 120.028999 47.876999 119.980003 47.796299C 119.885002 47.6423 119.762001 47.439999 119.837997 47.287701L 119.489998 46.591L 119.722 46.8232C 120.302002 46.939301 120.535004 46.4748 120.651001 46.0103L 120.651001 45.778099C 120.185997 45.545799 119.722 45.197498 120.07 44.500702L 119.722 44.500702C 119.489998 45.081402 119.257004 45.545799 118.444 45.429699C 117.892998 45.351002 117.716003 45.379002 117.550003 45.4053C 117.471001 45.417702 117.394997 45.429699 117.282997 45.429699C 116.819 45.429699 116.819 45.197498 116.934998 44.849098L 116.703003 44.500702L 116.934998 43.920101C 116.819 43.804001 116.703003 43.687901 116.934998 43.5718L 116.703003 42.991199C 116.703003 42.8372 116.640999 42.689499 116.532997 42.580601C 116.424004 42.471699 116.276001 42.4105 116.122002 42.4105L 116.703003 41.481602L 117.051003 41.481602C 117.002998 41.370098 116.920998 41.276501 116.817001 41.214001C 116.712997 41.151501 116.591003 41.123199 116.470001 41.133202L 115.193001 41.133202L 115.193001 41.481602C 115.193001 41.829899 115.337997 42.120201 115.483002 42.4105C 115.628998 42.700901 115.774002 42.991199 115.774002 43.3395C 115.736 43.501701 115.737 43.670601 115.777 43.832199C 115.818001 43.993801 115.896004 44.143398 116.005997 44.268501L 116.005997 45.081402C 115.912003 45.259701 115.872002 45.4613 115.889999 45.661999C 116.175003 46.505402 116.608002 47.291698 117.167 47.984402L 117.282997 47.984402L 118.096001 49.7262L 118.328003 50.0746L 118.328003 51.235802L 118.560997 51.584202L 118.560997 52.164799C 119.113998 53.205299 119.431 54.355202 119.489998 55.532398C 119.403 56.047401 119.485001 56.576599 119.722 57.042C 119.917 57.959301 120.033997 58.891701 120.07 59.828899C 120.07 60.0611 120.056999 60.2934 120.043999 60.5256L 120.043999 60.5257C 120.018997 60.9902 119.992996 61.454601 120.07 61.919102C 120.085999 62.1385 120.158997 62.350101 120.280998 62.533199C 120.403 62.716301 120.570999 62.864799 120.766998 62.964199L 121.114998 62.964199C 121.231003 64.822098 121.348 65.983398 121.348 65.286598C 121.391998 64.629402 121.391998 63.969799 121.348 63.3125L 121.348 62.964199L 121.811996 62.731899L 121.463997 61.803001L 121.231003 61.570702L 121.231003 60.4095C 121.278999 60.140598 121.278999 59.865501 121.231003 59.5966C 121.580002 59.5966 121.928001 59.5966 122.160004 59.248299C 122.214996 59.167099 122.255997 59.0858 122.292 59.0149C 122.412003 58.7817 122.473999 58.659801 122.740997 59.015999C 122.915001 59.248299 122.915001 59.393398 122.915001 59.509499C 122.915001 59.625702 122.915001 59.712799 123.088997 59.828899L 123.438004 59.248299C 123.089996 58.987801 123.197998 58.792301 123.321999 58.564602C 123.363998 58.487701 123.407997 58.4072 123.438004 58.319302C 123.484001 58.181499 123.310997 58.134499 123.129997 58.084999C 122.851997 58.0093 122.552002 57.927502 122.973 57.506401C 123.449997 57.0294 123.165001 56.879002 122.862999 56.7197C 122.724998 56.6464 122.582001 56.571201 122.509003 56.4613C 122.277 56.112999 123.321999 56.112999 123.786003 56.112999L 123.786003 55.764599C 123.587997 55.715199 123.432999 55.581699 123.282997 55.453499C 123.082001 55.280499 122.891998 55.117298 122.625 55.183998C 122.403 55.239498 122.366997 55.056099 122.325996 54.849602C 122.280998 54.6241 122.231003 54.371101 121.928001 54.371101C 121.632004 54.371101 121.608002 54.642502 121.593002 54.801102C 121.580002 54.9538 121.574997 55.001999 121.348 54.603401C 120.997002 53.990002 121.307999 53.971699 121.681 53.949799C 121.802002 53.942699 121.93 53.935101 122.043999 53.9067C 122.509003 53.790501 122.392998 52.629299 121.463997 52.397099L 121.695999 52.164799C 122.163002 52.525501 122.732002 52.728802 123.321999 52.745399C 122.973 53.2099 123.088997 53.6744 123.438004 54.138901L 123.786003 54.371101L 123.786003 54.603401C 123.766998 55.108799 123.931999 55.603901 124.250999 55.996799C 124.203003 56.091 124.233002 56.204399 124.261002 56.313499C 124.302002 56.473499 124.342003 56.624599 124.134003 56.6936C 124.063004 56.880501 124.063004 57.087299 124.134003 57.2742C 124.228996 57.4105 124.279999 57.572601 124.279999 57.738701C 124.279999 57.9048 124.228996 58.066898 124.134003 58.203201C 124.134003 58.3288 124.175003 58.451 124.250999 58.551498L 124.714996 58.783798C 124.598999 58.899899 124.483002 59.015999 124.598999 59.364399L 124.946999 59.364399L 124.946999 59.828899C 125.063004 61.919102 125.18 63.1964 125.18 62.499699C 125.223999 61.8424 125.223999 61.182899 125.18 60.5256L 125.18 59.364399C 125.18 59.2201 125.278999 59.155499 125.396004 59.0798C 125.560997 58.972801 125.760002 58.843601 125.760002 58.435398L 125.991997 58.087101C 126.017998 57.879902 126 57.6698 125.940002 57.469898C 125.879997 57.2701 125.778999 57.084801 125.643997 56.9258C 125.674004 56.799599 125.667999 56.6675 125.626999 56.544399C 125.585999 56.421299 125.512001 56.312099 125.412003 56.229099C 125.43 55.490101 125.227997 54.762402 124.831001 54.138901L 124.831001 53.5583L 124.598999 53.2099C 124.668999 51.982101 124.471001 50.7537 124.017998 49.6101L 124.017998 47.868301C 123.966003 47.737301 123.887001 47.618401 123.787003 47.5186C 123.688004 47.4188 123.569 47.340199 123.438004 47.287701L 123.205002 46.7071C 123.561996 46.4394 123.439003 46.103199 123.310997 45.751099C 123.272003 45.644901 123.232002 45.5373 123.205002 45.429699L 122.625 44.733002C 122.621002 44.426701 122.495003 44.134499 122.276001 43.920101L 122.276001 42.178299C 122.208 42.0411 122.169998 41.893799 122.132004 41.748402C 122.042 41.401299 121.955002 41.064602 121.463997 40.901001L 120.766998 39.391399C 120.766998 39.042999 120.766998 38.810799 120.535004 38.578499L 119.954002 37.997898L 119.606003 37.301201L 119.025002 36.0238C 119.133003 36.0238 119.236 35.980999 119.311996 35.9048C 119.389 35.828602 119.431999 35.725201 119.431999 35.617401C 119.431999 35.509602 119.389 35.4062 119.311996 35.330002C 119.236 35.253799 119.133003 35.210999 119.025002 35.210999L 118.677002 35.210999L 118.444 34.978699L 118.211998 34.978699L 117.863998 34.398102L 117.632004 34.049702L 117.282997 32.8885L 116.934998 32.540199C 116.910004 32.3983 116.855003 32.2631 116.775002 32.1432C 116.695999 32.0233 116.592003 31.921301 116.470001 31.843399L 116.122002 30.9144C 116.011002 30.8776 115.913002 30.817301 115.818001 30.7596C 115.613998 30.635599 115.431 30.523701 115.193001 30.682199C 114.971001 30.8302 115.031998 30.9783 115.105003 31.156401C 115.147003 31.2577 115.193001 31.368799 115.193001 31.4951L 116.005997 31.4951C 115.775002 31.7146 115.612999 31.997299 115.541 32.307899C 115.514999 32.4617 115.514999 32.618698 115.541 32.7724C 115.445999 32.835899 115.342003 32.8908 115.237 32.946499C 114.956001 33.094299 114.665001 33.247898 114.496002 33.5853C 114.373001 33.8325 114.182999 33.553398 113.945999 33.203201C 113.737 32.895401 113.490997 32.5327 113.219002 32.424C 112.967003 32.323101 112.779999 32.309898 112.621002 32.298599C 112.415001 32.284 112.254997 32.272701 112.057999 32.075699C 111.825996 31.843399 111.903 31.8176 111.980003 31.7918C 112.018997 31.7789 112.057999 31.766001 112.057999 31.727301L 112.921997 31.187099C 112.994003 31.186199 113.065002 31.177 113.135002 31.1595C 113.299004 31.118601 113.447998 31.033899 113.567001 30.9144C 113.531998 31.0278 113.531998 31.149401 113.567001 31.2628L 114.264 31.2628C 114.292999 31.1749 114.336998 31.0944 114.379997 31.0175C 114.503998 30.789801 114.611 30.594299 114.264 30.333799C 114.216003 30.445299 114.134003 30.5389 114.029999 30.6014C 113.926003 30.6639 113.805 30.6922 113.682999 30.682199C 113.704002 30.573299 113.693001 30.4608 113.652 30.358C 113.611 30.2551 113.541 30.1661 113.450996 30.101601L 113.450996 29.753201L 113.102997 29.1726C 113.413002 29.017799 113.413002 28.759701 113.413002 28.501699C 113.413002 28.3727 113.413002 28.243601 113.450996 28.127501C 113.379997 28.628 113.615997 28.952499 113.862999 29.290501L 113.862999 29.2906C 114.016998 29.501499 114.175003 29.7178 114.264 29.9855C 114.496002 30.682199 115.193001 30.333799 115.541 29.869301C 115.714996 29.638201 115.542999 29.407101 115.297997 29.1616L 115.308998 29.1726L 114.960999 28.591999L 113.916 27.1985L 112.753998 25.6889L 113.682999 26.733999L 114.728996 28.0114L 115.774002 29.2887L 116.703003 30.566099L 117.514999 31.727301L 117.748001 31.959499L 117.399002 31.378901L 116.470001 29.9855C 114.663002 27.348 112.643997 24.862499 110.431999 22.5536L 109.154999 21.2763L 107.876999 19.882799C 105.458 17.434 102.815002 15.2179 99.981003 13.2639L 99.052101 12.5671L 97.774696 11.6381C 97.306297 10.9734 96.663399 10.4509 95.916801 10.1286C 95.797302 10.0055 95.652 9.9104 95.491302 9.85017C 95.330704 9.78993 95.158699 9.76603 94.987801 9.78019C 94.942001 9.71919 94.884697 9.6678 94.819099 9.62896C 94.753502 9.59011 94.680901 9.56456 94.6054 9.55378C 94.5299 9.543 94.453102 9.54719 94.379204 9.56611C 94.305298 9.58504 94.235901 9.61832 94.174896 9.66407L 93.710403 9.43182L 92.0951 8.58166C 90.771202 7.76108 89.411697 6.99861 88.020401 6.29652L 86.162498 5.59979L 85.233498 5.25142L 84.304497 4.90306L 82.562698 4.32244L 80.8209 3.85796L 79.891899 3.62571L 78.962898 3.39347L 77.105003 2.92898L 76.176003 2.69673L 75.214897 2.69673C 74.300797 2.52115 73.382301 2.36625 72.460098 2.23224L 70.834396 2L 60.035 2C 56.432301 2.21966 52.856701 2.76376 49.351799 3.62571C 45.849899 4.48477 42.430401 5.6505 39.132999 7.10938L 38.320099 7.45775C 37.456001 7.86813 36.6012 8.29727 35.756401 8.74482L 35.6493 8.73509L 35.300999 8.96734L 35.34 8.96734C 33.249001 10.0944 31.2202 11.3348 29.2626 12.6832L 27.5208 13.8445L 26.0112 15.0057L 25.6628 15.2379L 23.921 16.3992L 22.2953 17.6765L 20.6696 19.07L 19.856701 19.766701L 19.0439 20.4634L 17.5343 21.973L 16.721399 22.7859L 16.0247 23.5987L 15.3279 24.4116L 14.6312 25.224501L 13.2377 26.850201C 11.4265 29.1043 9.75879 31.4701 8.24449 33.933601C 8.01228 34.359299 7.76718 34.772202 7.52207 35.185001L 7.52204 35.185001L 7.52196 35.1852C 7.03166 36.010899 6.54137 36.8367 6.15429 37.765701L 5.6898 38.694599L 5.45756 39.1591L 5.22532 39.6236L 4.41246 41.597698L 3.83185 43.1073C 2.96638 45.236 2.22813 47.412701 1.62043 49.625702C 8.14372 21.200899 33.595901 0 63.999802 0C 94.296402 0 119.676003 21.0515 126.308998 49.324902C 126.121002 49.421001 125.992996 49.6166 125.992996 49.8423C 125.992996 50.157501 126.244003 50.414101 126.556999 50.422699C 127.092003 52.901199 127.484001 55.432999 127.723 58.009201L 127.617996 57.2742C 127.501999 56.6936 127.386002 56.229099 127.269997 55.880699C 127.153999 55.532398 127.038002 55.764599 127.153999 55.996799C 127.153999 56.3452 127.269997 57.506401 127.501999 58.783798C 127.661003 59.6562 127.656998 59.6619 127.638 59.6889C 127.629997 59.701401 127.617996 59.718498 127.617996 59.828899L 127.617996 60.874001C 127.617996 61.257401 127.653 61.605701 127.684998 61.9188L 127.684998 61.9189L 127.684998 61.919102C 127.710999 62.174801 127.734001 62.407001 127.734001 62.615799C 127.734001 63.080299 127.966003 65.983398 127.966003 65.286598L 127.966003 65.286598z M 36.122398 8.7781L 35.6493 8.96734L 35.34 8.96734C 35.4785 8.89267 35.617298 8.81849 35.756401 8.74482L 36.122398 8.7781L 36.122398 8.7781z M 38.436298 8.03836L 38.203999 8.15448L 36.926701 8.85121L 36.122398 8.7781L 37.391201 8.2706L 37.855701 8.2706L 38.436298 8.03836L 38.436298 8.03836z M 39.4814 7.51581L 39.4814 7.68999L 38.436298 8.03836L 39.4814 7.51581L 39.4814 7.51581z M 40.100498 7.24815L 39.5975 7.45775L 39.4814 7.51581L 39.4814 7.45775C 39.681 7.35795 39.890099 7.29627 40.100498 7.24815L 40.100498 7.24815z M 58.741199 4.20632L 56.8997 4.20632L 56.6675 3.39347C 56.466 3.39347 56.2575 3.37921 56.0471 3.36482C 55.408401 3.32115 54.752998 3.27633 54.228901 3.62571L 52.9515 3.62571L 51.790298 4.20632C 51.365799 4.13016 50.930099 4.14241 50.510502 4.24232C 50.0909 4.34222 49.6964 4.52762 49.351799 4.78693L 46.3326 5.71591C 45.990601 5.6876 45.646702 5.73539 45.325401 5.85586C 45.0042 5.97633 44.7136 6.16648 44.474602 6.41265L 42.616699 6.41265L 42.036098 6.76101L 41.571602 6.76101C 41.245098 7.0222 40.8452 7.0998 40.4338 7.17963L 40.433701 7.17965C 40.323101 7.20112 40.211601 7.22274 40.100498 7.24815L 40.991001 6.87713L 42.384399 6.29652L 43.6618 5.83203L 44.939098 5.36755C 48.597801 4.13767 52.3717 3.28174 56.202999 2.81286C 60.667 2.20686 65.1838 2.09005 69.673103 2.46449L 71.531097 2.46449L 73.389099 2.69673L 75.214897 2.69673C 79.6119 3.54135 83.906097 4.8647 88.020401 6.64489L 89.762299 7.45775L 90.691299 7.80611L 91.504097 8.2706L 92.0951 8.58166C 92.719002 8.96834 93.334999 9.36793 93.942703 9.78019C 93.253403 9.92423 92.541801 9.92423 91.852501 9.78019L 90.691299 9.3157L 86.162498 7.57387L 84.885101 7.10938L 84.536797 6.76101L 83.607803 6.52877C 82.585197 5.95446 81.396103 5.74945 80.240303 5.94816L 79.079002 5.71591L 77.917801 5.36755L 77.569504 5.36755C 77.049202 5.04681 76.431198 4.92321 75.827599 5.01918C 75.285698 4.6321 74.640602 4.65791 73.995499 4.68371C 73.672897 4.69662 73.350304 4.70952 73.040703 4.67081C 72.612602 4.30186 72.0896 4.06046 71.531097 3.97408L 70.602097 3.62571L 70.253799 3.62571L 68.395798 3.0451L 65.492699 3.0451C 64.673203 2.91884 63.835098 2.99865 63.054199 3.27734L 61.196201 3.27734L 61.196201 3.50959C 61.196201 3.58834 60.822399 3.56028 60.473099 3.53406C 60.307301 3.52162 60.147099 3.50959 60.035 3.50959C 59.978401 3.50959 59.909401 3.50345 59.833199 3.49666C 59.440701 3.4617 58.8549 3.40951 58.757702 4.0902L 58.741199 4.20632L 58.741199 4.20632z M 58.757702 4.20632L 58.741199 4.20632C 58.6534 4.83165 58.757702 4.20632 58.757702 4.20632L 58.757702 4.20632z M 112.921997 31.187099C 112.825996 31.1884 112.731003 31.1749 112.638 31.1467L 112.987 31.1467L 112.921997 31.187099L 112.921997 31.187099z M 79.643898 114.009003L 79.543503 113.942001L 79.659698 113.942001C 79.648003 113.964996 79.643303 113.987 79.643898 114.009003L 79.643898 114.009003z M 116.592003 83.169403L 116.586998 83.169403L 116.583 83.162697L 116.592003 83.169403L 116.592003 83.169403z M 116.703003 83.169403L 116.592003 83.169403C 116.628998 83.196404 116.666 83.206299 116.703003 83.169403L 116.703003 83.169403z M 122.815002 80.843399C 122.747002 81.353996 122.625 81.997299 122.625 81.659897L 122.625 81.6278C 122.624001 81.600601 122.624001 81.573601 122.623001 81.5466C 122.622002 81.516602 122.621002 81.486801 122.620003 81.457397L 122.620003 81.457298C 122.609001 81.163597 122.599998 80.905899 122.815002 80.843399L 122.815002 80.843399z M 106.542999 106.379997C 107.690002 105.299004 108.753998 104.204002 109.735001 103.026001L 110.664001 101.981003L 111.476997 100.935997L 113.102997 98.846001L 113.334999 98.729797L 113.102997 98.497597L 112.174004 99.078201L 111.825996 99.426598L 109.387001 102.910004L 108.342003 104.188004L 106.140999 106.703003C 106.275002 106.596001 106.408997 106.487999 106.542999 106.379997L 106.542999 106.379997z M 94.094803 117.281998C 94.222702 116.870003 94.499199 116.735001 94.860901 116.558998C 94.9021 116.539001 94.944397 116.517998 94.987801 116.497002C 94.968102 116.419998 94.968102 116.339996 94.987801 116.264L 94.987801 116.031998L 92.897598 117.426003L 93.013702 117.426003L 93.447197 117.641998C 93.726601 117.597 93.915604 117.457001 94.094803 117.281998L 94.094803 117.281998z M 95.684502 119.167C 98.781998 117.550003 101.733002 115.671997 104.505997 113.553001C 93.473 122.582001 79.369102 128 63.999802 128C 51.985401 128 40.744301 124.689003 31.1388 118.931L 31.3528 119.051003L 32.281799 119.515999L 33.094601 119.980003L 34.139702 120.560997L 35.184799 121.025002L 37.158901 121.954002L 39.3652 122.883003L 40.758701 123.348L 42.384399 123.928001C 44.934299 124.718002 47.533298 125.337997 50.1646 125.786003L 54.112801 126.366997L 64.331497 126.366997C 68.3703 126.544998 72.416702 126.311996 76.408203 125.669998L 78.033897 125.321999L 78.846802 125.321999L 79.775803 125.089996L 81.517601 124.625L 82.330498 124.392998L 83.143303 124.161003L 86.162498 123.232002L 89.065498 122.186996L 90.807404 121.489998L 92.433098 120.792999L 95.684502 119.167L 95.684502 119.167z M 15.3279 105.464996C 14.5035 104.533997 13.7089 103.578003 12.9452 102.598999C 10.393 99.2285 8.16691 95.597397 6.31385 91.7528L 6.50266 91.878601C 6.55902 91.934998 6.61537 91.998199 6.67339 92.063202C 6.85445 92.266296 7.05168 92.487396 7.31552 92.575401C 7.41063 92.741096 7.54518 92.880798 7.70723 92.982101C 7.86929 93.083397 8.05383 93.143097 8.24449 93.155998L 8.59286 94.0849L 8.94123 95.013901L 9.40572 95.710701L 9.40572 96.291298L 9.52184 96.291298C 9.28959 97.104103 9.75408 97.6847 10.3347 98.1492C 10.5933 98.356102 10.6906 98.539902 10.7703 98.690399C 10.8697 98.877899 10.9416 99.013802 11.2637 99.078201C 11.5623 99.544601 11.9585 99.940804 12.4249 100.238998L 12.6571 100.587997C 12.6571 100.968002 12.8996 101.176003 13.1385 101.379997C 13.3372 101.550003 13.5334 101.718002 13.5861 101.981003L 13.5861 103.141998C 13.7844 103.421997 14.045 103.651001 14.3473 103.813004C 14.6497 103.973999 14.9854 104.061996 15.3279 104.070999L 15.7924 104.070999C 16.4396 104.856003 17.180599 105.557999 17.9988 106.162003C 18.073601 106.375999 18.195999 106.571999 18.356899 106.733002C 18.517799 106.892998 18.7129 107.015999 18.9277 107.091003L 19.16 107.091003C 19.3262 107.285004 19.4792 107.485001 19.6301 107.682999L 19.630199 107.682999C 20.1115 108.314003 20.570601 108.916 21.366301 109.181L 21.366301 109.413002C 21.484301 109.413002 21.602301 109.428001 21.718399 109.443001C 22.059299 109.486 22.383801 109.527 22.6436 109.181L 22.7598 109.181C 22.704 109.322998 22.6966 109.480003 22.738501 109.626999C 22.7805 109.773003 22.8696 109.902 22.992001 109.994003C 24.130199 111.149002 25.5217 112.024002 27.056299 112.547997L 27.404699 112.547997L 27.404699 113.128998L 28.565901 113.476997L 28.7981 113.476997C 28.9575 113.637001 29.075899 113.822998 29.1908 114.004997C 29.4107 114.351997 29.6178 114.678001 30.0755 114.754997L 30.656099 115.102997L 31.5851 115.683998L 32.7463 116.612999L 32.8624 116.612999C 33.137001 117.112999 33.594799 117.487999 34.139702 117.657997C 34.126801 117.735001 34.126801 117.813004 34.139702 117.889999L 34.836498 117.889999L 35.300999 118.122002L 36.3461 118.703003C 36.471802 118.912003 36.640202 119.093002 36.840302 119.233002C 37.040298 119.373001 37.267601 119.469002 37.507301 119.515999C 38.222 120.321999 39.220402 120.820999 40.294201 120.908997L 40.991001 121.258003L 41.571602 121.489998L 42.036098 121.837997L 42.5005 121.837997C 43.050499 122.246002 43.685699 122.524002 44.358501 122.651001L 45.055199 122.883003L 46.4487 123.348L 48.074402 123.928001C 50.624199 124.718002 53.223301 125.337997 55.854599 125.786003L 54.925598 125.786003C 51.112999 125.386002 47.343601 124.648003 43.6618 123.580002L 42.7328 123.348L 41.803799 122.999001L 40.178101 122.418999C 37.212898 121.334 34.339401 120.014 31.5851 118.471001L 30.8883 118.122002L 29.7271 117.426003L 28.565901 116.728996L 26.243401 115.219002C 22.2257 112.418999 18.5606 109.143997 15.3279 105.464996L 15.3279 105.464996z M 5.87742 90.646004C 5.86375 90.678101 5.85021 90.7099 5.83865 90.744301C 5.24905 89.464302 4.70048 88.1614 4.1946 86.837402C 4.28001 86.972 4.35516 87.117302 4.43087 87.263603C 4.67913 87.743599 4.93324 88.234802 5.57368 88.394997C 6.18915 88.548798 6.09104 88.957497 5.98848 89.384697C 5.93625 89.602303 5.88286 89.824699 5.92205 90.020699C 5.9929 90.374901 5.93406 90.513 5.87742 90.646004L 5.87742 90.646004z M 115.141998 29.0103C 114.93 28.8071 114.706001 28.5928 114.612 28.3598L 113.682999 27.663C 113.653999 27.476999 113.587997 27.2987 113.487999 27.139099C 113.388 26.979401 113.257004 26.8416 113.102997 26.733999C 113.109001 26.4965 113.07 26.26 112.987 26.0373L 113.334999 26.501801L 114.264 27.7791L 115.077003 28.940399L 115.291 29.1546C 115.244003 29.1071 115.193001 29.059099 115.141998 29.010401L 115.141998 29.0103L 115.141998 29.0103z M 120.651001 52.048698C 120.883003 52.048698 121.114998 52.164799 120.999001 52.397099L 120.651001 52.048698L 120.651001 52.048698z M 121.928001 51.700298C 121.799004 51.5317 121.719002 51.330799 121.695999 51.119701L 121.695999 50.0746C 121.791 50.154301 121.905998 50.2071 122.028 50.227501C 122.151001 50.247898 122.277 50.235199 122.392998 50.190701C 122.323997 50.630501 122.405998 51.0807 122.625 51.468102C 122.392998 51.352001 122.160004 51.468102 121.928001 51.816502L 121.928001 51.700298L 121.928001 51.700298z M 56.5513 5.1353L 54.112801 5.59979C 54.1273 5.48413 54.1273 5.36709 54.112801 5.25142L 56.5513 5.01918L 56.5513 5.1353L 56.5513 5.1353z M 4.06409 58.319302C 4.06353 58.3465 4.06353 58.373699 4.06409 58.400902L 4.06409 58.319302L 4.06409 58.319302z M 4.06409 58.400902C 4.07206 58.786499 4.19287 59.161999 4.41246 59.480499C 4.08289 59.892502 4.04562 60.3629 4.0103 60.8088C 3.99584 60.991402 3.9817 61.1698 3.94797 61.338501L 3.94797 60.4095C 3.94797 59.945 3.94797 59.480499 4.06409 59.015999L 4.06409 58.400902L 4.06409 58.400902z M 3.83185 61.919102C 3.85775 61.966801 3.88906 62.011101 3.92506 62.0513C 3.88991 62.290199 3.88991 62.5131 3.88991 62.746498C 3.88991 63.022202 3.88991 63.312599 3.83185 63.6609L 4.29634 63.080299C 4.51053 62.9375 4.63692 63.058102 4.75649 63.172199C 4.83139 63.243599 4.90362 63.3125 4.99307 63.3125L 4.29634 62.731899L 4.29634 62.267502C 4.19842 62.246201 4.10624 62.204102 4.02608 62.144001C 3.98934 62.116402 3.95552 62.0854 3.92506 62.0513C 3.93146 62.007801 3.93903 61.963799 3.94797 61.919102L 3.83185 61.919102L 3.83185 61.919102z M 7.08327 71.441101L 6.7349 72.370102L 6.50266 69.583199L 6.7349 69.583199L 7.08327 70.163803C 6.89553 70.520401 6.81488 70.923599 6.85103 71.324997L 7.08327 71.441101L 7.08327 71.441101z M 4.29634 69.467003C 4.45761 69.759598 4.65247 70.032402 4.87695 70.2799L 4.29634 70.2799L 4.29634 69.467003L 4.29634 69.467003z M 4.76083 70.860497L 4.52858 71.2089L 4.52858 70.5121L 4.76083 70.860497L 4.76083 70.860497z M 4.52858 71.557198C 4.99307 71.905602 5.34144 71.557198 5.6898 71.2089C 5.91476 70.983902 5.84919 70.904198 5.7745 70.813499C 5.73352 70.763702 5.6898 70.710503 5.6898 70.628304L 5.92205 70.628304L 5.92205 71.673401C 5.92205 72.253998 6.03817 72.950699 6.15429 73.531303L 6.15429 73.995796C 5.86225 74.239403 5.48901 74.3638 5.10919 74.3442C 5.34144 73.8797 5.57368 73.415199 5.10919 72.950699C 5.06128 73.025703 4.98644 73.079597 4.90006 73.101196C 4.81368 73.122803 4.7223 73.110497 4.6447 73.066803L 4.52858 71.557198L 4.52858 71.557198z M 17.6504 24.76L 17.1859 24.992201L 18.231001 23.714899C 18.191099 24.048 18.0716 24.3666 17.882601 24.643801L 17.6504 24.76L 17.6504 24.76z M 15.9086 26.733999L 15.7924 26.733999L 16.014299 26.423401C 15.9689 26.5226 15.9334 26.626699 15.9086 26.733999L 15.9086 26.733999z M 16.372999 25.9212C 16.2218 26.0648 16.1003 26.2355 16.014299 26.423401L 16.372999 25.9212L 16.372999 25.9212z M 11.8443 33.353001C 11.7949 33.550701 11.6613 33.706299 11.5332 33.855598C 11.3602 34.057201 11.197 34.247398 11.2637 34.514198L 10.3347 36.0238L 9.8702 36.7206C 10.5669 35.210999 11.2637 33.817501 12.0765 32.424L 11.8443 33.353001L 11.8443 33.353001z M 3.94797 64.125397L 4.76083 64.357697L 4.76083 64.706001L 4.6447 64.706001L 3.94797 65.170502L 3.94797 64.125397L 3.94797 64.125397z M 116.122002 92.459198L 116.703003 92.691498L 116.703003 93.504303L 115.657997 95.130096L 115.541 95.130096L 114.960999 95.478401C 114.867996 95.778801 114.828003 96.0933 114.845001 96.407402L 114.612 96.755798C 114.635002 96.6017 114.635002 96.445297 114.612 96.291298L 114.148003 95.594498L 114.148003 95.362297L 114.379997 95.013901L 114.612 94.5494L 115.193001 93.388199L 115.193001 92.923698C 115.254997 93.046898 115.362999 93.140602 115.492996 93.184097C 115.624001 93.227699 115.766998 93.217598 115.889999 93.155998C 116.013 93.094398 116.107002 92.986397 116.150002 92.855698C 116.194 92.724998 116.183998 92.582397 116.122002 92.459198L 116.122002 92.459198z M 113.334999 97.220299L 113.916 97.452499L 113.219002 97.6847L 113.102997 97.6847L 113.334999 97.220299L 113.334999 97.220299z M 106.367996 104.188004C 106.827003 104.228996 107.166 104.151001 107.406998 103.978996L 107.064003 104.419998L 106.716003 104.884003C 106.367996 104.884003 106.018997 104.652 106.367996 104.188004L 106.367996 104.188004z M 107.762001 103.522003L 107.406998 103.978996C 107.567001 103.865997 107.682999 103.710999 107.762001 103.522003L 107.762001 103.522003z M 107.762001 103.522003L 107.876999 103.375L 109.502998 101.285004L 110.084 100.472L 109.387001 100.472C 109.505997 100.948997 109.226997 101.241997 108.943001 101.541C 108.675003 101.822998 108.401001 102.110001 108.458 102.561996L 107.876999 102.330002C 107.924004 102.795998 107.896004 103.206001 107.762001 103.522003L 107.762001 103.522003z M 105.439003 105.696999L 106.484001 105.116997L 106.136002 105.581001L 105.670998 106.162003L 105.439003 106.162003L 105.439003 105.696999L 105.439003 105.696999z M 98.007004 112.084C 98.053398 111.945 98.174202 111.842003 98.294899 111.739998C 98.476097 111.586998 98.657204 111.433998 98.587601 111.154999L 99.516502 111.154999C 99.712898 111.168999 99.908798 111.120003 100.075996 111.015999C 100.242996 110.912003 100.372002 110.757004 100.445999 110.573997L 100.793999 110.225998C 100.844002 110.183998 100.880997 110.129997 100.902 110.068001C 100.921997 110.007004 100.925003 109.941002 100.910004 109.877998L 101.375 109.877998C 101.466003 109.695 101.647003 109.584 101.825996 109.474998C 102.101997 109.305 102.374001 109.139 102.303001 108.716003L 102.884003 108.716003L 99.284302 111.968002L 98.471397 112.547997L 97.310204 113.361L 96.845703 113.593002C 96.845703 113.260002 97.114098 113.041 97.430496 112.783997C 97.664803 112.593002 97.925499 112.379997 98.1231 112.084L 98.007004 112.084L 98.007004 112.084z M 90.110603 116.728996C 90.575104 116.960999 90.9235 116.960999 91.1558 116.497002C 91.177696 116.380997 91.177696 116.263 91.1558 116.148003C 91.416702 116.162003 91.677399 116.116997 91.918701 116.016998C 92.159897 115.916 92.375397 115.763 92.549202 115.568001C 92.872101 115.638 93.2099 115.581001 93.491402 115.407997C 93.772903 115.234001 93.976303 114.959 94.0588 114.639L 94.755501 114.639L 95.220001 114.871002L 94.0588 115.568001L 93.362099 116.031998L 92.665298 116.379997L 91.1558 117.193001L 89.646202 117.889999L 89.413902 117.889999C 89.3405 117.585999 89.301598 117.274002 89.297798 116.960999L 90.110603 116.728996L 90.110603 116.728996z M 29.2626 110.922997L 29.843201 110.922997L 29.1465 111.154999L 29.2626 110.922997L 29.2626 110.922997z M 43.777901 10.9414L 42.965 11.1737C 43.0541 10.9695 43.200001 10.7953 43.3853 10.6718C 43.570499 10.5483 43.787498 10.4806 44.010101 10.4769L 43.777901 10.9414L 43.777901 10.9414z M 53.2999 8.73509L 53.1838 8.73509L 52.254799 8.15448L 52.254799 7.80611C 52.4053 7.91899 52.604599 7.97091 52.797298 8.02113C 53.199402 8.12589 53.573002 8.22324 53.416 8.85121L 53.2999 8.73509L 53.2999 8.73509z M 56.7836 8.73509C 56.748402 8.77025 56.702599 8.80541 56.652599 8.84379C 56.537498 8.93218 56.400101 9.03765 56.319099 9.19958L 55.854599 8.85121L 55.854599 8.50285C 55.854599 8.37722 55.8139 8.25498 55.738499 8.15448C 55.738499 7.99853 55.5989 8.02875 55.465401 8.05762C 55.3008 8.09324 55.145699 8.12681 55.273998 7.80611C 55.3442 7.72294 55.396999 7.62652 55.429199 7.52256C 55.461399 7.4186 55.4725 7.30923 55.461601 7.20093C 55.450802 7.09263 55.418301 6.98761 55.366199 6.89209C 55.313999 6.79658 55.243099 6.71251 55.157902 6.64489L 55.157902 7.34162C 55.041698 7.16744 54.9837 6.9352 54.925598 6.70295C 54.867599 6.47071 54.809502 6.23846 54.693401 6.06428L 56.319099 5.71591C 56.449402 6.20785 56.488701 6.71943 56.4352 7.2255C 56.685398 7.63054 57.048698 7.95348 57.480301 8.15448C 57.480301 8.2706 57.364201 8.85121 56.8997 8.85121L 56.7836 8.73509L 56.7836 8.73509z M 57.828701 5.83203C 57.767601 5.84934 57.703701 5.85396 57.6408 5.8456C 57.5779 5.83724 57.517399 5.81609 57.463001 5.78345C 57.4086 5.75081 57.3615 5.70737 57.324501 5.65581C 57.287498 5.60425 57.261501 5.54567 57.2481 5.48367L 58.525398 5.25142C 58.508801 5.4121 58.444698 5.5642 58.341301 5.68829C 58.2379 5.81239 58.0998 5.90286 57.944801 5.94816L 57.828701 5.83203L 57.828701 5.83203z M 97.892502 16.6719L 97.892799 16.671801C 98.193497 16.4828 98.431702 16.333 98.1231 15.8185C 98.234596 15.7704 98.328201 15.6884 98.390701 15.5843C 98.453201 15.4801 98.4814 15.359 98.471397 15.2379C 98.461502 15.1169 98.4897 14.9957 98.5522 14.8916C 98.6147 14.7874 98.708298 14.7055 98.819801 14.6573C 98.858498 14.7347 98.858498 14.8638 98.858498 14.9928C 98.858498 15.2508 98.858498 15.5089 99.168198 15.3541C 99.401398 15.2375 99.459 15.5599 99.531998 15.9687C 99.604401 16.374201 99.691902 16.864599 99.981003 17.0959L 99.981003 17.3281C 99.560997 17.2292 99.123703 17.2292 98.703697 17.3281L 97.774696 16.747499C 97.814003 16.7213 97.853302 16.6966 97.891602 16.672501L 97.892097 16.672199L 97.892502 16.6719L 97.892502 16.6719z M 99.052101 13.9606L 99.168198 13.9606L 98.935898 14.1928C 98.935898 14.0767 98.935898 13.8445 98.703697 14.0767L 98.587601 14.0767C 98.582199 14.0138 98.589798 13.9505 98.609703 13.8906C 98.6297 13.8307 98.661697 13.7755 98.703697 13.7283L 99.052101 13.9606L 99.052101 13.9606z M 92.665298 12.3349C 92.691902 12.2597 92.691902 12.1778 92.665298 12.1026L 92.897598 12.1026L 93.129799 12.3349L 92.665298 12.3349L 92.665298 12.3349z M 73.389099 5.36755L 74.201897 5.59979L 74.434196 5.59979L 74.666397 6.06428L 73.156799 5.71591C 73.272903 5.59979 73.389099 5.48367 73.389099 5.36755L 73.389099 5.36755z M 81.982101 7.10938L 82.330498 7.10938L 82.330498 7.34162C 82.291801 7.48028 82.306099 7.62834 82.370499 7.75708C 82.434799 7.88582 82.544701 7.98606 82.678802 8.03836C 83.142601 7.7601 83.384102 8.07452 83.580902 8.3307C 83.630402 8.39525 83.6772 8.4561 83.7239 8.50285C 83.9562 8.73509 84.4207 8.85121 84.652901 8.50285C 84.57 8.72553 84.530602 8.96205 84.536797 9.19958L 79.079002 7.2255L 79.427399 6.64489L 79.659698 6.87713L 80.3564 6.87713C 80.5298 7.10585 80.775299 7.26948 81.053101 7.34162L 81.982101 7.34162L 81.982101 7.10938L 81.982101 7.10938z M 86.626999 10.3608L 86.394699 10.2679L 86.394699 10.0124C 86.162498 10.0124 86.046402 9.89631 85.930298 9.66407L 85.117401 9.66407L 86.046402 10.1286L 84.4207 9.43182L 82.562698 8.73509L 81.633698 8.38672L 80.704803 8.03836L 78.962898 7.45775C 78.382301 7.92224 77.917801 7.92224 77.569504 7.2255L 77.337196 7.45775C 77 7.58218 76.629402 7.58218 76.292099 7.45775C 76.118698 7.4062 75.9674 7.29827 75.862198 7.15103C 75.757004 7.00379 75.704002 6.82568 75.711502 6.64489L 75.711502 6.52877L 75.363098 6.52877L 73.505203 6.06428L 72.576202 5.83203L 72.460098 5.83203C 72.411903 5.94354 72.330002 6.03712 72.2258 6.09962C 72.121696 6.16211 72.000504 6.19036 71.879501 6.1804C 71.662804 5.90952 71.420799 6.06833 71.188904 6.22051C 70.923798 6.39451 70.671799 6.55984 70.486 6.06428L 70.0215 6.06428L 70.0215 6.64489C 69.8386 6.74233 69.693497 6.89812 69.609398 7.08749C 69.5252 7.27686 69.506798 7.48894 69.556999 7.68999L 70.0215 7.68999C 70.463203 7.7636 70.578201 8.07055 70.692001 8.37416C 70.757698 8.54948 70.822998 8.72369 70.9505 8.85121L 71.531097 8.85121L 73.040703 9.08346C 74.201897 8.50285 74.318001 9.08346 74.318001 10.0124C 74.377197 10.1151 74.461601 10.2009 74.563202 10.2619C 74.664803 10.3228 74.780197 10.3569 74.898598 10.3608L 75.247002 10.7092C 75.499397 10.9111 75.817703 10.9814 76.144501 11.0535C 76.569504 11.1473 77.009003 11.2443 77.337196 11.6381L 77.569504 11.6381L 77.569504 11.2898L 78.150101 11.2898C 78.399002 11.0409 78.7146 11.1921 79.007599 11.3325C 79.261299 11.4541 79.498001 11.5676 79.659698 11.4059C 79.833801 11.2317 80.066101 11.3478 80.3274 11.4785C 80.5886 11.6091 80.878899 11.7543 81.169197 11.6381C 81.467903 10.8916 81.814499 11.153 82.1474 11.404C 82.332298 11.5434 82.513 11.6796 82.678802 11.6381L 83.027199 11.6381L 84.072304 10.2447C 84.489899 9.72274 84.813599 9.85768 85.296501 10.059L 85.296997 10.0592C 85.351097 10.0818 85.407303 10.1052 85.465797 10.1286C 85.8451 10.2803 85.728798 10.4816 85.602501 10.7001C 85.5355 10.816 85.465797 10.9368 85.465797 11.0575L 85.814102 11.0575L 85.874702 11.0728C 86.3088 11.1825 86.632103 11.2642 86.743103 10.7092L 86.8592 10.4769L 86.588303 10.3608L 86.626999 10.3608L 86.626999 10.3608z M 86.394699 10.2779L 86.588303 10.3608L 86.394699 10.3608L 86.394699 10.2779L 86.394699 10.2779z M 86.394699 10.2779L 86.394699 10.2679L 86.046402 10.1286L 86.394699 10.2779L 86.394699 10.2779z M 60.3834 7.57387C 60.486301 7.46814 60.553001 7.33245 60.573898 7.18636C 60.594799 7.04028 60.568699 6.89134 60.4995 6.76101C 60.731701 6.87713 60.818802 7.10938 60.905899 7.34162C 60.993 7.57387 61.080101 7.80611 61.312302 7.92224C 61.5672 8.04964 61.367699 7.96737 61.078098 7.84796L 61.078098 7.84794C 60.839802 7.74968 60.5406 7.62629 60.3834 7.57387L 60.3834 7.57387z M 63.6348 8.15448C 63.466801 7.95223 63.252201 7.79375 63.009499 7.69263C 62.7668 7.5915 62.503201 7.55075 62.241299 7.57387C 62.357399 7.2255 62.589699 7.2255 62.821899 7.45775L 63.7509 7.92224L 63.867001 7.92224L 63.6348 8.15448L 63.6348 8.15448z M 65.144402 7.45775L 66.189499 7.45775C 66.154999 7.55604 66.147499 7.66181 66.167999 7.76397C 66.1884 7.86612 66.235901 7.9609 66.305603 8.03836L 65.144402 8.15448C 65.1987 7.92541 65.1987 7.68681 65.144402 7.45775L 65.144402 7.45775z M 68.860298 7.80611C 68.865601 7.7432 68.858101 7.67986 68.838097 7.61997C 68.8181 7.56007 68.786201 7.50487 68.744202 7.45775L 68.976402 7.68999L 69.092499 7.68999L 68.860298 7.80611L 68.860298 7.80611z M 59.9189 5.71591C 59.894901 5.56201 59.894901 5.40533 59.9189 5.25142L 59.9189 5.71591L 59.9189 5.71591z M 92.317001 13.2639L 92.200897 13.2639L 92.433098 13.0316C 92.642601 13.3213 92.875603 13.5931 93.129799 13.8445L 92.317001 13.2639L 92.317001 13.2639z M 95.916801 14.7734C 95.916801 14.7734 95.916801 14.6573 96.032898 14.6573C 95.9589 14.8823 95.919701 15.1173 95.916801 15.3541L 95.800598 15.3541L 95.916801 14.7734L 95.916801 14.7734z M 98.239197 19.418301C 98.102898 19.3818 97.960602 19.373301 97.8209 19.3932C 97.681198 19.4132 97.546997 19.461201 97.426399 19.5345C 97.394997 19.393499 97.312103 19.2693 97.194099 19.1861L 97.426399 18.7216L 98.239197 18.7216C 98.233902 18.7845 98.241402 18.8479 98.261398 18.907801C 98.281303 18.9676 98.313301 19.0228 98.355301 19.07L 98.239197 19.1861L 98.239197 19.418301L 98.239197 19.418301z M 104.278 22.5536L 102.419998 20.8118C 102.735001 20.613501 103.093002 20.494101 103.464996 20.4634L 104.044998 20.4634L 104.044998 20.6957C 104.165001 20.855499 104.244003 21.056499 104.323997 21.261C 104.475998 21.650801 104.633003 22.0529 105.089996 22.205299C 105.425003 22.2904 105.775002 22.3034 106.114998 22.243299C 106.455002 22.1833 106.778999 22.0515 107.064003 21.856899L 107.528999 22.089199L 107.992996 22.089199C 107.859001 22.2544 107.778 22.4571 107.761002 22.6698C 107.768997 22.848499 107.815002 23.0236 107.894997 23.183599C 107.974998 23.343599 108.087997 23.4851 108.225998 23.5987C 108.140999 24.2745 108.547997 24.5816 109 24.9223C 109.168999 25.049999 109.345001 25.182301 109.502998 25.340599C 109.834999 25.6724 109.559998 25.852501 109.285004 26.0326C 109.079002 26.1677 108.873001 26.3027 108.921997 26.501801C 108.862999 26.561399 108.82 26.636101 108.800003 26.717899C 108.778999 26.799801 108.781998 26.885599 108.806 26.966299C 108.569 26.650999 108.247002 26.409401 107.876999 26.2696C 107.191002 25.6521 106.504997 24.913099 105.794998 24.148199L 105.794998 24.1481L 105.794998 24.148001L 105.794998 24.1479L 105.794998 24.1478C 105.303001 23.6182 104.800003 23.0762 104.278 22.5536L 104.278 22.5536z M 107.064003 19.998899L 107.296997 20.231199L 107.064003 20.231199L 107.064003 19.998899L 107.064003 19.998899z M 109.502998 28.940399L 109.154999 28.3598L 109.502998 28.3598C 109.458 28.511299 109.458 28.672701 109.502998 28.8242L 109.502998 28.940399L 109.502998 28.940399z M 112.522003 27.1985C 112.513 27.2127 112.504997 27.2271 112.497002 27.241699C 112.32 27.2619 112.174004 27.1507 112.174004 26.966299C 112.068001 27.069201 111.931999 27.1359 111.786003 27.156799C 111.639999 27.1777 111.490997 27.1516 111.361 27.082399C 111.361 27.316999 111.227997 27.5327 111.093002 27.752399C 110.893997 28.0763 110.689003 28.409 110.897003 28.8242C 111.348 28.8416 111.793999 28.719999 112.174004 28.475901L 112.405998 27.8953C 112.355003 27.6731 112.388 27.440599 112.497002 27.241699C 112.542999 27.2365 112.591003 27.222401 112.638 27.1985L 112.522003 27.1985L 112.522003 27.1985z M 108.690002 21.508499L 108.921997 21.508499L 108.690002 21.740801L 108.690002 21.508499L 108.690002 21.508499z M 103.115997 16.3992L 103 16.3992L 101.838997 15.4702L 102.884003 16.283001L 103.115997 16.3992L 103.115997 16.3992z M 27.1724 15.1218L 28.4498 14.309L 29.3787 13.7283C 29.1644 13.9607 29.0056 14.2386 28.9142 14.5412L 28.565901 14.5412C 28.111 15.1098 27.4891 15.4278 26.877399 15.7406C 26.239799 16.0667 25.613199 16.3871 25.198299 16.979799L 24.966101 16.979799L 24.5016 17.212L 27.1724 15.1218L 27.1724 15.1218z M 24.1532 17.6765L 23.6887 18.257099L 23.340401 18.489401L 23.108101 18.489401L 24.1532 17.6765L 24.1532 17.6765z M 22.4114 19.3022L 22.179199 19.766701L 21.366301 20.3473L 22.4114 19.3022L 22.4114 19.3022z M 20.089001 21.624701L 20.9018 20.8118L 20.9018 21.392401L 19.740601 22.4375C 19.2761 22.530399 19.1089 22.920601 18.9417 23.310801C 18.8999 23.4083 18.858101 23.5058 18.8116 23.5987L 18.4632 23.5987L 20.089001 21.624701L 20.089001 21.624701z M 0.348183 64.589897L 0.348183 63.1964C 0.348183 62.731899 0.348183 62.267502 0.464305 61.803001L 0.69655 59.132198L 1.04492 56.4613C 1.10298 55.996899 1.19007 55.561401 1.27716 55.1259C 1.36425 54.690498 1.45134 54.255001 1.50941 53.790501L 1.50941 52.977699L 1.74165 52.164799L 2.09002 50.539101L 2.09002 49.7262L 2.32226 48.913399L 3.01899 47.519901L 3.48348 46.0103C 4.85927 41.9659 6.64932 38.074501 8.8251 34.398102C 10.9946 30.719299 13.565 27.292101 16.489201 24.179399L 18.9277 21.740801L 18.347099 22.4375L 16.953699 24.0632C 15.1424 26.3174 13.4747 28.683201 11.9604 31.1467C 11.7282 31.572399 11.483 31.9853 11.2379 32.398201C 10.7476 33.223999 10.2573 34.049702 9.8702 34.978699L 9.40572 35.9077L 9.17347 36.3722L 8.94123 36.8367L 8.12837 38.810799L 7.89613 39.2752L 7.89613 39.6236L 7.54776 39.6236C 7.26339 39.9454 7.09926 40.355701 7.08327 40.784801L 6.85103 40.784801C 6.8635 40.9006 6.8635 41.017399 6.85103 41.133202L 6.61878 41.133202L 6.27042 42.294399C 6.33408 42.867401 6.1534 43.370602 5.97718 43.861401C 5.83198 44.2658 5.6898 44.661701 5.6898 45.081402L 4.87695 47.984402L 4.76083 47.984402L 4.41246 48.797298C 4.39093 48.840302 4.36541 48.887402 4.33812 48.937698L 4.33806 48.937801L 4.33784 48.938202L 4.33779 48.938301C 4.21792 49.159199 4.06409 49.442699 4.06409 49.7262L 4.06409 50.539101C 3.71696 50.973 3.75897 51.471802 3.80236 51.9869C 3.81702 52.161098 3.83185 52.337101 3.83185 52.513199L 3.48348 54.951801C 3.50381 55.261101 3.50381 55.5714 3.48348 55.880699L 3.48348 56.112999C 3.42542 56.577499 3.33833 57.042 3.25124 57.506401C 3.16415 57.970901 3.07705 58.435398 3.01899 58.899899L 3.25124 58.899899L 3.25124 62.035198L 2.90287 62.035198C 2.80964 61.755501 2.92225 61.4758 3.03787 61.188599C 3.21029 60.760399 3.38943 60.315399 2.90287 59.828899L 2.67063 59.828899C 2.27381 60.622501 2.329 61.416199 2.38568 62.2313C 2.42852 62.847301 2.47222 63.475601 2.32226 64.125397C 2.30029 64.240501 2.30029 64.358704 2.32226 64.473801L 2.5545 64.473801C 2.6476 64.753098 2.62874 65.051003 2.61012 65.3452C 2.5823 65.784897 2.555 66.216103 2.90287 66.564003C 2.95419 66.966003 2.87263 67.373802 2.67063 67.725197L 2.67063 71.441101L 3.71573 71.441101L 3.71573 72.486198L 3.25124 72.950699L 3.25124 72.602303C 3.0168 72.758598 2.99272 72.967499 2.96665 73.193604C 2.95399 73.303497 2.94085 73.417397 2.90287 73.531303L 2.90287 73.763603L 3.13512 74.692497C 2.5158 74.847397 2.5158 75.260201 2.5158 75.6903C 2.5158 75.905403 2.5158 76.124702 2.43838 76.318199L 2.78675 76.666603L 2.78675 77.131104C 2.98582 77.3302 3.1209 77.593201 3.25598 77.8563C 3.43608 78.207001 3.61619 78.557701 3.94797 78.756798L 3.94797 81.427597L 3.25124 81.427597L 3.25124 83.169403C 3.28995 83.246902 3.30285 83.337196 3.31575 83.427498C 3.34156 83.608101 3.36736 83.788803 3.5996 83.866203C 3.83185 83.943604 3.75443 84.227501 3.67702 84.511299C 3.63831 84.653198 3.5996 84.795197 3.5996 84.911301C 2.51268 81.7742 1.69684 78.549698 1.16104 75.273102C 0.582371 71.742203 0.310405 68.167801 0.348183 64.589897L 0.348183 64.589897z M 58.060902 125.438004L 61.544601 125.438004L 62.241299 125.669998L 62.589699 125.902L 60.964001 125.902L 58.060902 125.438004L 58.060902 125.438004z M 67.931297 125.669998L 67.3507 125.669998L 67.3507 125.438004L 67.815201 125.438004L 67.931297 125.669998L 67.931297 125.669998z M 116.237 38.230099C 116.237 38.6791 115.873001 39.042999 115.424004 39.042999C 114.975998 39.042999 114.612 38.6791 114.612 38.230099C 114.612 37.7812 114.975998 37.417301 115.424004 37.417301C 115.873001 37.417301 116.237 37.7812 116.237 38.230099L 116.237 38.230099z M 125.761002 74.460197C 125.876999 74.808601 125.876999 75.273102 125.528 75.621399L 125.18 75.621399C 125.18 75.156998 125.643997 74.1119 125.761002 74.460197L 125.761002 74.460197z M 125.643997 72.9506L 126.224998 72.021599C 126.151001 72.168701 126.158997 72.3507 126.167999 72.541801C 126.185997 72.9543 126.206001 73.409302 125.412003 73.6474L 125.412003 73.299004L 125.643997 72.9506L 125.643997 72.9506z M 124.947998 77.130997L 125.295998 77.479401C 125.257004 77.634201 125.257004 77.789101 125.257004 77.935303C 125.257004 78.227699 125.257004 78.485802 124.947998 78.640602C 124.754997 78.523003 124.606003 78.346397 124.523003 78.137199C 124.439003 77.927902 124.425003 77.697197 124.483002 77.479401C 124.523003 77.385696 124.586998 77.3041 124.668999 77.242996C 124.75 77.181801 124.846001 77.143204 124.947998 77.130997L 124.947998 77.130997z M 107.994003 107.207001C 108.010002 106.760002 108.128998 106.322998 108.342003 105.929001C 108.448997 105.815002 108.579002 105.724998 108.724998 105.667999C 108.870003 105.610001 109.027 105.585999 109.182999 105.598C 109.338997 105.609001 109.489998 105.654999 109.625999 105.732002C 109.762001 105.809998 109.878998 105.917 109.968002 106.044998C 110.025002 106.109001 110.056999 106.192001 110.056999 106.278C 110.056999 106.362999 110.025002 106.445999 109.968002 106.510002L 109.968002 106.741997L 108.458 107.903C 108.316002 107.852997 108.194 107.758003 108.110001 107.633003C 108.026001 107.507004 107.985001 107.357002 107.994003 107.207001L 107.994003 107.207001z M 103.435997 111.513C 103.686996 111.225998 103.908997 110.970001 104.278 111.154999L 104.741997 110.458L 105.555 110.110001C 105.510002 109.998001 105.510002 109.873001 105.555 109.761002L 106.948997 109.761002L 106.019997 110.573997L 104.510002 111.851997L 104.510002 112.084L 103.581001 112.431999C 103.233002 112.316002 102.884003 112.084 103.233002 111.735001C 103.304001 111.664001 103.371002 111.586998 103.435997 111.513L 103.435997 111.513z M 116.386002 36.969299C 116.143997 36.953499 115.889999 36.936901 115.889999 37.301102C 115.763 37.258701 115.620003 37.293701 115.485001 37.327C 115.249001 37.384899 115.035004 37.437401 114.960999 37.068901C 115.147003 36.656399 115.477997 36.326099 115.889999 36.1399L 116.819 36.720501C 116.819 36.997601 116.608002 36.9837 116.386002 36.969299L 116.386002 36.969299z M 70.596001 7.57489C 70.599197 7.49748 70.602501 7.41952 70.602501 7.34156L 70.950897 7.34156C 71.183098 7.80605 71.415298 8.96727 70.950897 8.61891C 70.564301 8.32901 70.579903 7.9587 70.596001 7.57489L 70.596001 7.57489z "  fill="red"/></g></g><g id="6491462d4615419737567840" transform="matrix(1.290008,0,0,1.290008,214.73191,172.686176)" ><g><path  d="M 25.75 27.6401L 27.91 30.080099C 28.0135 30.1968 28.1485 30.281099 28.2988 30.322901C 28.4491 30.3647 28.608299 30.3622 28.7572 30.3158C 28.906099 30.2693 29.038401 30.180799 29.1383 30.061001C 29.2381 29.941099 29.301201 29.795 29.32 29.6401C 29.6054 27.167 29.2939 24.6616 28.4118 22.3337C 27.529699 20.005699 26.1026 17.9231 24.25 16.260099C 22.9613 15.0151 21.405001 14.0813 19.700001 13.5301C 18.0186 12.9548 16.2649 12.6182 14.49 12.5301L 4.91 12.0001C 4.75859 11.9917 4.60763 12.0231 4.47207 12.091C 4.33652 12.159 4.22108 12.2612 4.1372 12.3875C 4.05332 12.5139 4.00392 12.6599 3.99388 12.8112C 3.98385 12.9625 4.01353 13.1138 4.08 13.2501L 4.49 14.1101C 5.39804 16.0123 5.87278 18.0923 5.88 20.2001C 5.89781 24.2885 7.46268 28.2185 10.26 31.2001C 12.1553 33.2155 14.6413 34.577599 17.360001 35.090099L 21.1 35.800098C 22.0728 35.985199 22.9821 36.415798 23.741699 37.051102C 24.501301 37.686401 25.085899 38.505299 25.440001 39.430099C 25.799999 40.3601 26.540001 42.780102 27.280001 45.280102C 27.3293 45.439098 27.4282 45.578201 27.5623 45.676998C 27.696301 45.775799 27.8585 45.829102 28.025 45.829102C 28.1915 45.829102 28.353701 45.775799 28.4877 45.676998C 28.621799 45.578201 28.720699 45.439098 28.77 45.280102L 29.6 42.7901C 30.1127 41.257301 30.019699 39.586498 29.34 38.120098L 29.139999 37.710098C 27.5359 34.516998 25.601999 31.500601 23.370001 28.7101C 22.2614 27.3286 21.058599 26.025499 19.77 24.810101L 16.360001 21.810101L 18.99 22.810101C 21.591999 23.8657 23.908199 25.5205 25.75 27.6401L 25.75 27.6401L 25.75 27.6401z "  fill="white"/><path  d="M 40.630001 28.760201C 38.3979 31.550699 36.4641 34.567101 34.860001 37.760201C 34.279999 38.910198 33.220001 41.510201 32.169998 44.2202L 29.74 51.500198C 29.721001 51.557301 29.715799 51.618099 29.724899 51.677502C 29.733999 51.737 29.757 51.7934 29.7922 51.8423C 29.827299 51.891102 29.873501 51.930801 29.927099 51.958302C 29.9806 51.985802 30.039801 52.000099 30.1 52.000198L 32 52.000198C 32.799301 51.9972 33.576099 51.7355 34.214199 51.2542C 34.852402 50.7729 35.317501 50.0979 35.540001 49.3302C 36.540001 45.960201 38.009998 40.870201 38.540001 39.4202C 38.8941 38.495399 39.478699 37.676498 40.2383 37.041199C 40.997799 36.405899 41.9072 35.9753 42.880001 35.790199L 46.290001 35.1502C 49.223801 34.636501 51.909801 33.179401 53.939999 31.0002C 56.6646 27.9881 58.1567 24.0616 58.119999 20.0002C 58.127602 17.9513 58.5994 15.9306 59.5 14.0902L 59.91 13.2302C 59.971298 13.0955 59.997299 12.9474 59.985401 12.7999C 59.973499 12.6524 59.924198 12.5103 59.842098 12.3872C 59.759998 12.264 59.6478 12.1639 59.516201 12.0961C 59.384602 12.0284 59.2379 11.9954 59.09 12.0002L 49 12.5702C 47.988098 12.6128 46.983101 12.7569 46 13.0002C 43.715099 13.5899 41.592499 14.6871 39.790001 16.210199C 37.937401 17.873199 36.5103 19.955799 35.628201 22.2838C 34.746101 24.6117 34.434601 27.117201 34.720001 29.5902C 34.7388 29.7451 34.801899 29.891199 34.901699 30.011101C 35.001598 30.130899 35.1339 30.2194 35.282799 30.2659C 35.431702 30.3123 35.5909 30.3148 35.741199 30.273001C 35.891499 30.231199 36.026501 30.1469 36.130001 30.030199L 38.290001 27.5902C 40.130699 25.520599 42.428001 23.908001 45 22.880199L 47.630001 21.880199L 44.220001 24.880199C 42.9356 26.0896 41.736099 27.386 40.630001 28.760201L 40.630001 28.760201L 40.630001 28.760201z "  fill="white"/></g></g><g id="6491462d6486317029893552" transform="matrix(2.439016,0,0,2.439016,135.961992,353.188177)" ><path  d="M 8.784 -2.574Q 8.064 -2.664 7.29 -2.691Q 6.516 -2.718 5.778 -2.646Q 5.67 -2.448 5.553 -2.223Q 5.436 -1.998 5.373 -1.764Q 5.31 -1.53 5.337 -1.296Q 5.364 -1.062 5.526 -0.864Q 5.526 -0.81 5.544 -0.792Q 5.742 -0.522 5.517 -0.144Q 5.292 0.234 4.716 0.342Q 3.582 0.522 2.691 0.459Q 1.8 0.396 0.828 0.198Q 0.198 0 0.144 -0.297Q 0.09 -0.594 0.612 -1.116Q 0.954 -1.458 1.251 -1.845Q 1.548 -2.232 1.8 -2.61Q 2.97 -4.446 4.059 -6.354Q 5.148 -8.262 6.12 -10.008Q 6.012 -10.134 5.778 -9.999Q 5.544 -9.864 5.283 -9.63Q 5.022 -9.396 4.797 -9.144Q 4.572 -8.892 4.518 -8.82Q 4.248 -8.298 3.735 -7.965Q 3.222 -7.632 2.61 -7.812Q 2.34 -7.902 2.214 -8.109Q 2.088 -8.316 2.16 -8.604Q 2.304 -9.198 2.718 -9.747Q 3.132 -10.296 3.672 -10.755Q 4.212 -11.214 4.824 -11.556Q 5.436 -11.898 5.976 -12.078Q 7.362 -12.51 8.604 -12.735Q 9.846 -12.96 11.25 -12.996L 11.322 -12.996Q 11.952 -12.978 12.312 -12.654Q 12.672 -12.33 12.636 -11.916Q 12.726 -10.998 12.717 -10.008Q 12.708 -9.018 12.672 -8.01Q 12.636 -7.002 12.609 -5.985Q 12.582 -4.968 12.636 -3.978Q 12.636 -3.348 12.789 -2.682Q 12.942 -2.016 13.266 -1.494Q 13.356 -1.332 13.428 -1.152Q 13.5 -0.972 13.518 -0.774Q 13.554 -0.468 13.365 -0.225Q 13.176 0.018 12.816 0.144Q 12.402 0.288 11.763 0.351Q 11.124 0.414 10.467 0.414Q 9.81 0.414 9.216 0.342Q 8.622 0.27 8.298 0.144Q 7.902 0 7.83 -0.18Q 7.758 -0.36 8.028 -0.738Q 8.118 -0.846 8.19 -0.936Q 8.262 -1.026 8.352 -1.134Q 8.532 -1.368 8.64 -1.764Q 8.748 -2.16 8.784 -2.574z M 9.216 -5.184Q 9.234 -5.454 9.243 -6.084Q 9.252 -6.714 9.243 -7.416Q 9.234 -8.118 9.189 -8.739Q 9.144 -9.36 9.09 -9.612Q 8.838 -9.198 8.514 -8.604Q 8.19 -8.01 7.875 -7.398Q 7.56 -6.786 7.299 -6.21Q 7.038 -5.634 6.894 -5.256z "  fill="red" transform="matrix(1.333867,0,0,1.333867,0,0)" /><path  d="M 7.452 -7.56Q 7.686 -7.794 7.965 -8.181Q 8.244 -8.568 8.514 -8.973Q 8.784 -9.378 9.036 -9.756Q 9.288 -10.134 9.468 -10.386Q 9.378 -10.53 9.297 -10.683Q 9.216 -10.836 9.126 -10.98Q 8.838 -11.502 9.099 -12.015Q 9.36 -12.528 10.044 -12.78Q 10.53 -12.942 10.944 -12.978Q 11.628 -12.996 12.285 -12.987Q 12.942 -12.978 13.59 -12.942Q 13.806 -12.924 14.013 -12.87Q 14.22 -12.816 14.4 -12.726Q 14.76 -12.564 14.931 -12.267Q 15.102 -11.97 15.102 -11.628Q 15.102 -11.286 14.913 -10.935Q 14.724 -10.584 14.346 -10.296Q 14.112 -10.116 13.869 -9.981Q 13.626 -9.846 13.374 -9.72Q 12.672 -9.396 12.276 -8.784Q 11.538 -7.506 10.593 -6.336Q 9.648 -5.166 8.802 -3.978Q 8.766 -3.618 8.694 -3.213Q 8.622 -2.808 8.586 -2.412Q 8.55 -2.016 8.595 -1.647Q 8.64 -1.278 8.856 -0.99Q 9.054 -0.864 9.198 -0.63Q 9.486 -0.216 9.297 0.279Q 9.108 0.774 8.55 1.062Q 8.352 1.17 8.118 1.233Q 7.884 1.296 7.668 1.332Q 6.75 1.44 5.877 1.449Q 5.004 1.458 4.14 1.332Q 3.654 1.278 3.312 1.152Q 2.772 0.972 2.655 0.495Q 2.538 0.018 2.934 -0.486Q 3.114 -0.702 3.321 -0.882Q 3.528 -1.062 3.762 -1.224Q 4.014 -1.404 4.149 -1.602Q 4.284 -1.8 4.374 -2.07Q 4.77 -3.33 4.464 -4.554Q 4.158 -5.832 3.843 -7.083Q 3.528 -8.334 2.97 -9.504Q 2.718 -9.36 2.511 -9.216Q 2.304 -9.072 2.07 -8.946Q 1.638 -8.73 1.233 -8.757Q 0.828 -8.784 0.558 -8.982Q 0.288 -9.18 0.198 -9.54Q 0.108 -9.9 0.324 -10.35Q 0.612 -10.962 1.188 -11.466Q 2.844 -12.906 4.968 -13.104Q 5.832 -13.176 6.165 -12.762Q 6.498 -12.348 6.642 -11.574Q 6.678 -11.106 6.759 -10.683Q 6.84 -10.26 6.948 -9.792Q 7.056 -9.324 7.182 -8.784Q 7.308 -8.244 7.452 -7.56z "  fill="red" transform="matrix(1.333867,0,0,1.333867,19.709916,0)" /><path  d="M 8.784 -2.574Q 8.064 -2.664 7.29 -2.691Q 6.516 -2.718 5.778 -2.646Q 5.67 -2.448 5.553 -2.223Q 5.436 -1.998 5.373 -1.764Q 5.31 -1.53 5.337 -1.296Q 5.364 -1.062 5.526 -0.864Q 5.526 -0.81 5.544 -0.792Q 5.742 -0.522 5.517 -0.144Q 5.292 0.234 4.716 0.342Q 3.582 0.522 2.691 0.459Q 1.8 0.396 0.828 0.198Q 0.198 0 0.144 -0.297Q 0.09 -0.594 0.612 -1.116Q 0.954 -1.458 1.251 -1.845Q 1.548 -2.232 1.8 -2.61Q 2.97 -4.446 4.059 -6.354Q 5.148 -8.262 6.12 -10.008Q 6.012 -10.134 5.778 -9.999Q 5.544 -9.864 5.283 -9.63Q 5.022 -9.396 4.797 -9.144Q 4.572 -8.892 4.518 -8.82Q 4.248 -8.298 3.735 -7.965Q 3.222 -7.632 2.61 -7.812Q 2.34 -7.902 2.214 -8.109Q 2.088 -8.316 2.16 -8.604Q 2.304 -9.198 2.718 -9.747Q 3.132 -10.296 3.672 -10.755Q 4.212 -11.214 4.824 -11.556Q 5.436 -11.898 5.976 -12.078Q 7.362 -12.51 8.604 -12.735Q 9.846 -12.96 11.25 -12.996L 11.322 -12.996Q 11.952 -12.978 12.312 -12.654Q 12.672 -12.33 12.636 -11.916Q 12.726 -10.998 12.717 -10.008Q 12.708 -9.018 12.672 -8.01Q 12.636 -7.002 12.609 -5.985Q 12.582 -4.968 12.636 -3.978Q 12.636 -3.348 12.789 -2.682Q 12.942 -2.016 13.266 -1.494Q 13.356 -1.332 13.428 -1.152Q 13.5 -0.972 13.518 -0.774Q 13.554 -0.468 13.365 -0.225Q 13.176 0.018 12.816 0.144Q 12.402 0.288 11.763 0.351Q 11.124 0.414 10.467 0.414Q 9.81 0.414 9.216 0.342Q 8.622 0.27 8.298 0.144Q 7.902 0 7.83 -0.18Q 7.758 -0.36 8.028 -0.738Q 8.118 -0.846 8.19 -0.936Q 8.262 -1.026 8.352 -1.134Q 8.532 -1.368 8.64 -1.764Q 8.748 -2.16 8.784 -2.574z M 9.216 -5.184Q 9.234 -5.454 9.243 -6.084Q 9.252 -6.714 9.243 -7.416Q 9.234 -8.118 9.189 -8.739Q 9.144 -9.36 9.09 -9.612Q 8.838 -9.198 8.514 -8.604Q 8.19 -8.01 7.875 -7.398Q 7.56 -6.786 7.299 -6.21Q 7.038 -5.634 6.894 -5.256z "  fill="red" transform="matrix(1.333867,0,0,1.333867,41.484659,0)" /><path  d="M 3.744 -1.512Q 4.374 -1.206 5.013 -1.332Q 5.652 -1.458 6.093 -1.809Q 6.534 -2.16 6.66 -2.664Q 6.786 -3.168 6.39 -3.618Q 6.264 -3.744 6.066 -3.924Q 5.868 -4.104 5.652 -4.293Q 5.436 -4.482 5.229 -4.644Q 5.022 -4.806 4.878 -4.914Q 3.852 -5.634 3.15 -6.66Q 2.862 -7.056 2.7 -7.488Q 2.538 -7.92 2.538 -8.442Q 2.52 -9.45 3.006 -10.269Q 3.492 -11.088 4.428 -11.772Q 5.202 -12.348 6.057 -12.636Q 6.912 -12.924 7.83 -12.978Q 8.766 -13.05 9.657 -12.987Q 10.548 -12.924 11.448 -13.014Q 11.862 -13.05 12.177 -12.951Q 12.492 -12.852 12.69 -12.654Q 12.888 -12.456 12.969 -12.186Q 13.05 -11.916 13.014 -11.628Q 12.87 -10.692 12.429 -9.882Q 11.988 -9.072 11.088 -8.424Q 10.836 -8.226 10.566 -8.118Q 10.296 -8.01 9.99 -8.01Q 9.522 -8.064 9.378 -8.298Q 9.234 -8.532 9.216 -8.91Q 9.216 -9.036 9.216 -9.198Q 9.216 -9.36 9.207 -9.504Q 9.198 -9.648 9.144 -9.765Q 9.09 -9.882 8.964 -9.936Q 8.82 -9.99 8.568 -9.999Q 8.316 -10.008 8.046 -9.999Q 7.776 -9.99 7.515 -9.945Q 7.254 -9.9 7.074 -9.846Q 6.606 -9.684 6.435 -9.333Q 6.264 -8.982 6.462 -8.622Q 6.858 -8.208 7.335 -7.812Q 7.812 -7.416 8.298 -7.02Q 8.784 -6.624 9.234 -6.219Q 9.684 -5.814 10.044 -5.4Q 10.692 -4.644 10.791 -3.735Q 10.89 -2.826 10.494 -1.98Q 10.08 -1.026 9.369 -0.342Q 8.658 0.342 7.785 0.774Q 6.912 1.206 5.94 1.404Q 4.968 1.602 4.032 1.566Q 3.096 1.53 2.268 1.278Q 1.44 1.026 0.864 0.558Q 0.486 0.27 0.27 -0.198Q 0.054 -0.666 0.081 -1.224Q 0.108 -1.782 0.396 -2.376Q 0.684 -2.97 1.296 -3.492Q 1.602 -3.762 1.98 -3.951Q 2.358 -4.14 2.745 -4.239Q 3.132 -4.338 3.519 -4.329Q 3.906 -4.32 4.23 -4.212Q 4.824 -4.05 5.022 -3.654Q 5.22 -3.258 5.112 -2.826Q 5.004 -2.394 4.635 -2.016Q 4.266 -1.638 3.744 -1.512z "  fill="red" transform="matrix(1.333867,0,0,1.333867,61.194575,0)" /><path  d="M 8.784 -2.574Q 8.064 -2.664 7.29 -2.691Q 6.516 -2.718 5.778 -2.646Q 5.67 -2.448 5.553 -2.223Q 5.436 -1.998 5.373 -1.764Q 5.31 -1.53 5.337 -1.296Q 5.364 -1.062 5.526 -0.864Q 5.526 -0.81 5.544 -0.792Q 5.742 -0.522 5.517 -0.144Q 5.292 0.234 4.716 0.342Q 3.582 0.522 2.691 0.459Q 1.8 0.396 0.828 0.198Q 0.198 0 0.144 -0.297Q 0.09 -0.594 0.612 -1.116Q 0.954 -1.458 1.251 -1.845Q 1.548 -2.232 1.8 -2.61Q 2.97 -4.446 4.059 -6.354Q 5.148 -8.262 6.12 -10.008Q 6.012 -10.134 5.778 -9.999Q 5.544 -9.864 5.283 -9.63Q 5.022 -9.396 4.797 -9.144Q 4.572 -8.892 4.518 -8.82Q 4.248 -8.298 3.735 -7.965Q 3.222 -7.632 2.61 -7.812Q 2.34 -7.902 2.214 -8.109Q 2.088 -8.316 2.16 -8.604Q 2.304 -9.198 2.718 -9.747Q 3.132 -10.296 3.672 -10.755Q 4.212 -11.214 4.824 -11.556Q 5.436 -11.898 5.976 -12.078Q 7.362 -12.51 8.604 -12.735Q 9.846 -12.96 11.25 -12.996L 11.322 -12.996Q 11.952 -12.978 12.312 -12.654Q 12.672 -12.33 12.636 -11.916Q 12.726 -10.998 12.717 -10.008Q 12.708 -9.018 12.672 -8.01Q 12.636 -7.002 12.609 -5.985Q 12.582 -4.968 12.636 -3.978Q 12.636 -3.348 12.789 -2.682Q 12.942 -2.016 13.266 -1.494Q 13.356 -1.332 13.428 -1.152Q 13.5 -0.972 13.518 -0.774Q 13.554 -0.468 13.365 -0.225Q 13.176 0.018 12.816 0.144Q 12.402 0.288 11.763 0.351Q 11.124 0.414 10.467 0.414Q 9.81 0.414 9.216 0.342Q 8.622 0.27 8.298 0.144Q 7.902 0 7.83 -0.18Q 7.758 -0.36 8.028 -0.738Q 8.118 -0.846 8.19 -0.936Q 8.262 -1.026 8.352 -1.134Q 8.532 -1.368 8.64 -1.764Q 8.748 -2.16 8.784 -2.574z M 9.216 -5.184Q 9.234 -5.454 9.243 -6.084Q 9.252 -6.714 9.243 -7.416Q 9.234 -8.118 9.189 -8.739Q 9.144 -9.36 9.09 -9.612Q 8.838 -9.198 8.514 -8.604Q 8.19 -8.01 7.875 -7.398Q 7.56 -6.786 7.299 -6.21Q 7.038 -5.634 6.894 -5.256z "  fill="red" transform="matrix(1.333867,0,0,1.333867,80.232223,0)" /></g></g></svg>